<svg width="800" height="600" xmlns="http://www.w3.org/2000/svg" xmlns:xlink="http://www.w3.org/1999/xlink">
 <metadata id="metadata7">image/svg+xml</metadata>
 
 <g>
  <title>background</title>
  <rect fill="none" id="canvas_background" height="602" width="802" y="-1" x="-1"/>
 </g>
 <g>
  <!--<title>Layer 1</title>-->
  <g stroke="null" id="svg_1">
   <path  class="capital" stroke="#000000" fill="#fffecc" fill-rule="evenodd" stroke-width="2" stroke-linecap="round" stroke-linejoin="round" stroke-miterlimit="4" d="m414.082617,124.173538l-15.973541,-4.68543l-9.420613,-5.633919l-4.439592,-3.295311l-4.223051,-3.401611l0.6497,-2.444911l1.08282,-1.169302l-0.541391,-1.169306l-5.739,-1.594504l-3.248489,-1.275605l-3.159818,0.88372l-0.214026,0.853263l0.017396,1.741642l-0.800094,1.024494l-11.062176,-0.58055l-13.905673,0.920605l0,0l0,0l0.918809,0.901987l1.071946,1.352982l-2.450162,1.653648l-4.287785,2.856297l-4.900328,0.601324l-3.215839,-0.601324l-0.918809,-2.254973l-2.782663,1.170612l1.531353,4.209279l1.531353,3.457621l2.297025,1.95431l-1.225079,3.156959l-0.153137,1.95431l1.68449,1.803977l2.909569,0.751654l2.297025,0.751658l2.143896,2.405306l2.909561,0.751654l3.828382,-0.901987l2.909561,1.05232l5.053477,0.751658l2.909561,-0.300662l2.143916,0.300662l4.44089,-2.705964l2.45019,-0.901991l2.143877,0l1.225095,1.503315l1.071919,1.05232l3.828382,0.751658l2.45019,0.601324l2.909545,-0.450995l2.756424,-0.150329l2.45015,1.202649l3.981558,0l2.909561,-0.751654l3.368972,-0.300666l2.297053,0.901991l1.99074,0.901987l0.612547,0.150333l0.226262,-1.544814l3.096033,0.239049l3.652615,-1.673341l2.330703,-3.210084l2.156786,-1.024494l1.426247,-1.126941l0.995685,-1.415897z" id="path6271"><title>Miranda</title></path>
   <path  class="occidental" stroke="#000000" fill="#fffecc" fill-rule="evenodd" stroke-width="2" stroke-linecap="round" stroke-linejoin="round" stroke-miterlimit="4" id="path23938" d="m242.787551,100.278751l-1.84473,2.422313l-1.949093,1.275605l-3.140207,0.637801l-2.598789,0.956703l-0.757982,1.913406l-0.108282,2.65751l1.732529,2.76381l0.216564,3.189012l1.191114,2.126005l-0.6497,1.807107l-2.057375,0.212603l-1.732529,0l-0.974546,1.488204l-0.86626,1.381905l-1.515964,1.381905l-1.51596,0.425202l-1.299396,1.063003l0.974546,1.913406l2.165661,1.381905l0.649696,2.444908l-0.757978,2.76381l0.974546,1.381905l2.165657,1.700807l1.732529,0l0,-2.870109l1.299396,-1.594508l2.057375,-1.169302l2.382225,0l0.108282,2.976409l-1.299392,6.059121l-2.057379,2.338608l-2.057375,1.063003l-0.866264,1.594508l-2.490507,0.318898l-2.598793,0.531505l-1.949093,0.531501l-1.840811,-1.275605l-0.433128,-1.594504l0.216564,-2.551211l-0.216564,-2.551207l-1.299396,-0.744104l-1.299396,2.976409l-2.165657,1.91341l-0.6497,2.870109l-1.407678,1.700803l1.082828,2.126009l-0.649696,0.531501l-2.273943,-1.807107l-1.840811,0.318902l0.108286,0.850404l1.51596,1.488204l0.433132,1.169302l-1.082828,0.425202l-1.515964,-1.488204l-2.057375,-1.488204l-1.51596,0.850404l0.649696,1.381905l1.407678,0.8504l-0.649696,0.744104l-2.057379,-0.956703l-2.165657,-0.850404l-0.974546,1.913406l0,2.338608l-0.541414,3.614214l-0.757982,1.381905l-1.949093,0.425202l-2.490507,-0.956703l-1.624246,-0.425202l-1.19111,0.531501l-2.273943,-0.212599l-1.19111,-1.381905l0.974546,-1.700807l1.082828,-1.700807l0.757982,-2.126005l-0.541418,-1.700807l-1.732525,0.106299l-0.866264,1.275605l-2.057375,-0.106299l-1.624246,0.106299l-1.19111,1.063003l-1.840811,1.807107l-0.757982,3.189012l-1.082828,-0.637801l-1.407678,-2.338608l-1.949093,-2.76381l-0.757982,-3.082712l1.407678,-2.444908l1.082832,-1.275605l1.949093,0.425202l1.949093,-0.425202l-1.51596,-1.807107l-2.815357,-1.381905l-1.407678,-1.063003l-2.598793,-0.106299l-1.51596,-2.019706l-1.51596,-0.425202l-1.299396,1.807107l-1.51596,-1.169306l-1.299396,-1.169302l-1.407678,0.531501l-1.299396,-2.444911l-1.407675,-0.956703l-1.624246,1.381905l-4.547881,-0.8504l-1.082832,-1.594508l0,-2.551207l-0.866264,-0.425202l-1.19111,-0.106299l-1.082828,-2.232309l-1.515964,-0.956703l-1.624243,0.956703l-0.649696,2.126005l0,1.913406l-2.176909,0.755656l-1.896146,-0.400347l-2.295923,-1.092795l-5.983318,-4.917571l0.139149,-1.844089l2.295923,-2.18559l3.965686,-1.63919l2.017628,-1.707491l1.739337,-1.707487l-0.139146,-2.117289l1.043602,-1.229393l-0.34787,-0.887896l-2.574215,-0.956193l-0.278295,-2.936884l-1.851956,-3.184043l6.685201,0.28338l7.550828,-3.041403l7.374786,-0.2732l3.200379,-1.775788l2.782939,0.068297l5.218008,-3.824776l3.965686,-0.068301l9.044548,-3.073482l3.130805,-1.775788l-1.808908,1.63919l1.739337,0.819595l2.574215,-0.409798l5.218012,-2.868587l3.26995,0.546399l6.400759,2.936884l5.357153,-0.751298l5.913743,0.478098l4.452701,0.682997l4.035261,1.024494l2.087203,-0.341501l1.948058,-1.092791l4.591847,-0.068301l2.138402,2.623858z"><title>Lara</title></path>
   <path  class="andina" stroke="#000000" fill="#fffecc" fill-rule="evenodd" stroke-width="2" stroke-linecap="round" stroke-linejoin="round" stroke-miterlimit="4" d="m150.195545,135.304268l2.002976,-0.72151l0,-1.913406l0.649696,-2.126005l1.624243,-0.956703l1.515964,0.956703l1.082828,2.232309l1.19111,0.106299l0.866264,0.425202l0,2.551207l1.082832,1.594508l4.547881,0.8504l1.624246,-1.381905l1.407675,0.956703l1.299396,2.444911l1.407678,-0.531501l1.299396,1.169302l1.51596,1.169306l1.299396,-1.807107l1.51596,0.425202l1.51596,2.019706l2.598793,0.106299l1.407678,1.063003l2.815357,1.381905l1.51596,1.807107l-1.949093,0.425202l-1.949093,-0.425202l-1.082832,1.275605l-1.407678,2.444908l0.757982,3.082712l1.949093,2.76381l1.407678,2.338608l1.107607,0.734739l-0.949767,2.010348l-1.949093,1.063003l-1.299396,1.807107l-1.732525,1.913406l-0.108286,2.126005l1.407678,1.381905l1.624246,0l0.757978,2.870113l-1.624243,3.189008l-0.974546,2.126009l-2.165661,2.232309l-0.580121,1.620954l-2.772718,-1.33123l-5.148433,-0.580546l-5.078862,0l-3.513462,0.853742l-2.678577,1.331844l-0.104358,-1.400141l-1.808912,-1.468442l-1.5654,0.648847l-2.156778,1.946537l-2.609006,-1.195242l-2.574215,-3.21008l-3.4091,-1.844089l-2.817726,-0.887896l-0.939239,-1.844089l-0.173937,-2.219736l-1.530613,-3.449133l-1.91327,-2.424635l-2.922084,-0.614696l-1.948058,-0.717148l0.521799,-9.015547l0.660948,-4.883421l5.183224,0.580546l5.148433,0.375647l2.713364,-2.219736l1.49583,-3.380832l1.321897,-2.014838l2.156778,-0.136598l1.70455,-1.946541l-0.869669,-3.141783l-1.399591,-2.613245z" id="path24918"><title>Trujillo</title></path>
   <path  class="occidental" stroke="#000000" fill="#fffecc" fill-rule="evenodd" stroke-width="2" stroke-linecap="round" stroke-linejoin="round" stroke-miterlimit="4" d="m257.260476,201.181067l-1.19111,4.570917l-1.407678,3.614214l-2.598789,2.76381l-2.598793,1.169302l-2.165657,1.381905l-1.949097,3.189012l-0.649696,3.720513l0.32485,3.401611l-0.6497,1.169306l-2.490507,0l-3.789903,-3.720513l-1.407678,-2.65751l-2.057375,-1.594504l-3.465053,-2.01971l-1.840811,-1.913406l-1.949093,-2.019706l2.165657,-2.338608l-1.082828,-0.850404l-1.840811,-0.212603l-0.757982,-2.976409l-6.496974,-7.441026l-3.248489,0.637805l-1.624243,0l-1.624246,-0.850404l-4.331317,-0.956703l-2.057375,-1.488208l-1.407678,-1.381901l-2.815357,0.212599l-1.624246,0.744104l-6.821824,-1.807107l-4.114753,-1.807107l-3.248485,-2.126009l-1.732529,-1.063003l-1.949093,-1.594504l-2.490507,-1.594508l-3.025211,-3.376435l0.507197,-1.461356l2.165661,-2.232309l0.974546,-2.126009l1.624243,-3.189008l-0.757978,-2.870113l-1.624246,0l-1.407678,-1.381905l0.108286,-2.126005l1.732525,-1.913406l1.299396,-1.807107l1.949093,-1.063003l0.999144,-1.971414l0.733384,-3.343606l1.840811,-1.807107l1.19111,-1.063003l1.624246,-0.106299l2.057375,0.106299l0.866264,-1.275605l1.732525,-0.106299l0.541418,1.700807l-0.757982,2.126005l-1.082828,1.700807l-0.974546,1.700807l1.19111,1.381905l2.273943,0.212599l1.19111,-0.531501l1.624246,0.425202l2.490507,0.956703l1.949093,-0.425202l0.757982,-1.381905l0.541414,-3.614214l0,-2.338608l0.974546,-1.913406l2.165657,0.850404l2.057379,0.956703l0.649696,-0.744104l-1.407678,-0.8504l-0.649696,-1.381905l1.51596,-0.850404l2.057375,1.488204l1.515964,1.488204l1.082828,-0.425202l-0.433132,-1.169302l-1.51596,-1.488204l-0.108286,-0.850404l1.840811,-0.318902l2.273943,1.807107l0.649696,-0.531501l-1.082828,-2.126009l1.407678,-1.700803l0.6497,-2.870109l2.165657,-1.91341l1.299396,-2.976409l1.299396,0.744104l0.216564,2.551207l-0.216564,2.551211l0.433128,1.594504l1.840811,1.275605l1.949093,-0.531501l2.598793,-0.531505l2.490507,-0.318898l0.866264,-1.594508l2.057375,-1.063003l5.536758,13.36637l1.182751,1.912386l0.069571,3.82478l3.896115,2.93688l2.922084,2.766136l2.678577,1.570893l0.382653,3.756475l2.05242,1.980691l0.417441,1.058644l-1.878483,0.785445l0.974027,5.566418l0.104358,3.346682l2.12199,2.048988l-7.931372,2.936884l-0.20872,1.502589l1.078389,1.263543l1.669762,-0.068297l1.182747,1.161092l1.043602,2.458786l1.530617,1.161092l2.991659,1.570893l0.191994,0.974306z" id="path2307">Portuguesa</path>
   <path  class="occidental" stroke="#000000" fill="#fffecc" fill-rule="evenodd" stroke-width="2" stroke-linecap="round" stroke-linejoin="round" stroke-miterlimit="4" id="path2299" d="m268.394396,131.364855l-1.082828,-0.93963l-0.216568,-3.507914l-0.974546,-2.976409l0.866264,-2.76381l1.299396,-2.338608l0.108282,-1.700807l-1.51596,-2.65751l-0.32485,-4.570913l0.757982,-2.338608l0,-2.76381l1.299392,-0.106303l1.949093,0.956707l4.995154,-1.740479l-1.145543,-1.241849l-3.235167,0.358574l-6.800804,-0.017073l-4.278764,0.170748l-3.635216,-0.97327l-1.339288,-1.502589l-1.165355,-1.980691l1.304505,-2.117289l2.626398,2.561237l-1.843699,-2.766136l-2.000237,-0.153671l-6.313788,0.700071l-2.922084,2.783209l-2.079182,0.65183l-1.84473,2.302789l-1.949093,1.275605l-3.140207,0.637801l-2.598789,0.956703l-0.757982,1.913406l-0.108282,2.65751l1.732529,2.76381l0.216564,3.189012l1.191114,2.126005l-0.6497,1.807107l-2.057375,0.212603l-1.732529,0l-0.974546,1.488204l-0.86626,1.381905l-1.515964,1.381905l-1.51596,0.425202l-1.299396,1.063003l0.974546,1.913406l2.165661,1.381905l0.649696,2.444908l-0.757978,2.76381l0.974546,1.381905l2.165657,1.700807l1.732529,0l0,-2.870109l1.299396,-1.594508l2.057375,-1.169302l2.382225,0l3.36432,-0.876726l2.754968,0.386361l0.934721,1.545444l2.361401,1.352263l2.804164,0.338066l2.01703,-0.869312l1.229896,-1.593739l1.377484,-0.917607l2.164618,0.434656l0.787134,3.380658l1.229896,1.448854l2.508989,-0.19318l5.657524,-4.008495l0.702226,-0.987639z"><title>Yaracuy</title></path>
   <path  class="central" stroke="#000000" fill="#fffecc" fill-rule="evenodd" stroke-width="2" stroke-linecap="round" stroke-linejoin="round" stroke-miterlimit="4" d="m257.364795,201.096493l-0.348385,-0.926405l-2.923639,-1.381905l-1.51596,-1.381905l-1.082832,-2.338608l-1.19111,-1.169306l-1.51596,0.106303l-1.191114,-1.275605l0.108282,-1.488204l2.490511,-0.850404l5.522428,-2.126009l-2.057375,-2.126005l-0.216568,-3.295311l-0.757978,-4.145715l-0.216568,-1.381905l1.840811,-0.850404l-0.324846,-1.063003l-2.057379,-2.01971l-0.324846,-3.720509l-2.707075,-1.488208l-2.815357,-2.76381l-3.898185,-2.976409l-0.108282,-4.039415l-1.407678,-1.807103l-1.082832,-3.082712l-1.949093,-5.315017l-2.382225,-4.996118l1.988398,-2.244066l1.328288,-5.988595l-0.060712,-2.998957l3.457567,-0.886625l2.707075,0.318902l0.974546,1.807103l2.273943,1.169306l2.815357,0.318902l1.949093,-0.850404l1.299396,-1.381905l1.407678,-1.063003l2.273939,0.318898l0.6497,3.507914l1.299392,1.381905l2.490511,-0.212603l3.356771,-2.551207l2.273943,-1.488204l0.678903,-0.832793l0.737048,-2.049143l2.598793,-1.381901l2.382225,-1.275605l1.51596,-0.425202l1.191114,1.275605l-1.515964,1.381905l-1.624243,2.657507l0.433132,1.700807l3.140207,1.275605l1.407678,1.275602l0.757978,0.956703l2.382225,1.063006l1.732529,-0.318902l2.057375,-0.212599l2.923639,2.551207l3.573339,0.318902l1.407678,-0.531501l0.525868,-1.648869l4.136333,5.603887l0.97455,2.976409l-3.031925,2.551211l-2.165657,1.275605l-4.006471,1.063003l-0.866264,2.870109l-0.757978,2.232309l1.51596,3.189012l0.757982,2.657507l-0.866264,2.65751l1.51596,1.807107l1.51596,3.401611l0.108282,4.252014l0.757982,4.996118l-2.923639,3.720513l-2.273943,1.913406l-1.624243,3.189012l-1.949097,4.464613l0.433132,3.189012l0.541418,5.315021l-1.476659,4.107129l-1.980196,-0.900546l-2.988648,-3.018445l-3.628194,-0.229398l-3.492906,0.482951l-4.230844,-0.579541l-10.675501,-0.09659" id="path2309"><title>Cojedes</title></path>
   <path  class="central" stroke="#000000" fill="#fffecc" fill-rule="evenodd" stroke-width="2" stroke-linecap="round" stroke-linejoin="round" stroke-miterlimit="4" d="m275.556872,103.921467l-5.005096,1.747596l-1.949093,-0.956707l-1.299392,0.106303l0,2.76381l-0.757982,2.338608l0.32485,4.570913l1.51596,2.65751l-0.108282,1.700807l-1.299396,2.338608l-0.866264,2.76381l0.974546,2.976409l0.216568,3.507914l1.082828,0.956703l0.757978,-1.91341l2.598793,-1.381901l2.382225,-1.275605l1.51596,-0.425202l1.191114,1.275605l-1.515964,1.381905l-1.624243,2.657507l0.433132,1.700807l3.140207,1.275605l1.407678,1.275602l0.757978,0.956703l2.382225,1.063006l1.732529,-0.318902l2.057375,-0.212599l2.923639,2.551207l3.573339,0.318902l1.407678,-0.531501l0.438032,-1.753708l1.671691,-2.650548l1.407678,0.531501l2.382225,2.01971l1.624243,2.232305l1.407678,0.212603l1.732529,-1.807107l2.382225,-0.744104l1.51596,-1.169302l1.949093,-0.106299l0.007053,-2.499068l-1.36145,-1.79856l-2.923643,-0.7441l-3.465053,-0.106299l-0.854508,-2.400318l1.182015,-3.248353l-1.51596,-0.956707l-1.624246,2.338608l-3.140203,-0.531501l-2.707075,-0.106299l-1.840811,-1.594504l0.541414,-2.126009l3.789903,-2.551207l3.248489,-0.850404l2.382225,-0.318902l1.600817,-0.647541l0.007434,-2.48495l-3.248485,-1.169306l-2.707075,0.318902l-4.114753,-0.850404l-1.19111,-1.275605l0.324846,-2.76381l2.958474,-2.523238l-1.967937,0.340716l-2.923639,0.425198l-4.76445,-0.531501l-3.573335,-0.318898l-3.356771,-0.106303l-3.224411,-3.554698z" id="1"><title>Carabobo</title></path>
   <path  class="central" stroke="#000000" fill="#fffecc" fill-rule="evenodd" stroke-width="2" stroke-linecap="round" stroke-linejoin="round" stroke-miterlimit="4" d="m315.833099,104.853157l-4.891784,0.497003l-6.388692,1.169302l-6.496978,0.637805l-2.688931,0.517503l-2.941782,2.565205l-0.324846,2.76381l1.19111,1.275605l4.114753,0.850404l2.707075,-0.318902l3.248485,1.169306l0.089836,2.453311l2.184107,2.649107l1.732529,1.913406l-1.082828,2.444908l-3.465057,1.700803l-1.38495,1.89228l0.843536,2.359738l3.465053,0.106299l2.923643,0.7441l1.403908,1.881439l2.161886,-0.897779l3.140207,-0.212599l2.598789,1.594504l4.872732,1.169306l5.0893,0.212599l2.165661,3.507914l3.248485,2.126005l2.598793,2.01971l2.598789,1.275602l0.108286,1.488208l2.707071,0.531501l1.624246,2.126005l-0.433132,1.700807l-0.541414,1.807107l-2.057379,2.019706l-2.707071,0l-1.840811,2.232309l1.51596,2.338608l3.573335,1.488204l2.273943,0.637805l2.165661,1.169302l2.165657,0.637801l3.573339,1.913406l2.382225,0l1.19111,-1.275602l0,-1.381905l1.407678,-0.637805l1.840811,-4.996115l-0.866264,-0.106299l-0.86626,-2.232309l1.19111,-3.295311l0.32485,-1.913406l-3.140207,-3.401615l-1.19111,-1.381905l1.51596,-1.169302l1.19111,-2.65751l0.6497,-2.126005l-0.866264,-1.700807l0.042733,-4.758908l-1.19686,0.019098l-5.053461,-0.589448l-2.909569,-1.05232l-3.828382,0.901987l-2.909569,-0.751654l-2.143892,-2.405306l-2.297025,-0.751658l-2.909569,-0.751654l-1.68449,-1.803977l0.153137,-1.95431l1.225079,-3.156959l-2.297025,-1.95431l-1.531353,-3.457621l-1.461534,-4.071792l-1.448035,0.463838l-2.909569,-1.05232l-1.68449,1.653644l-2.143892,0.601328l-0.459403,-3.156959l-2.157797,-3.853267z" id="path14168"><title>Argaua</title></path>
   <path  class="oriental" stroke="#000000" fill="#fffecc" fill-rule="evenodd" stroke-width="2" stroke-linecap="round" stroke-linejoin="round" stroke-miterlimit="4" d="m462.235994,118.906179l2.142224,-2.500783l2.273951,-1.807103l1.9491,-2.01971l4.547901,-1.594504l1.515941,-2.338608l2.16568,-2.019706l2.490491,0.212599l1.732521,1.807107l2.707071,0.106299l4.439592,-0.106299l5.089331,0.425202l3.356771,-1.169306l4.006471,-1.700803l-1.08286,-0.531501l-2.382221,-1.169306l-3.356771,-1.063003l-3.031921,-0.318902l-1.407671,-1.488204l-2.382221,0.318902l-5.955572,0.318898l-4.872712,0.956703l-2.598801,1.807107l-0.97455,-2.65751l-1.732521,-2.657507l1.515941,-1.063006l3.031921,0.318902l4.981021,0.744104l3.248501,-1.488204l2.815341,0.318898l4.006471,1.169306l4.006471,-1.488204l2.273951,-0.425202l6.063842,1.063003l5.414142,0.531501l2.923651,-0.425202l4.006471,-1.381905l7.688092,-0.106299l2.057371,-1.807107l4.439592,-0.425202l6.930122,0l1.9491,0.850404l4.331321,0l3.573312,-1.488204l3.248501,-1.381905l4.872712,0.7441l3.681621,0.318902l6.388692,0l5.414181,1.275605l3.140191,0.318902l4.764442,0.212599l1.62425,-0.744104l4.656171,-0.425198l3.681621,-0.850404l4.006471,0.106299l-0.43316,1.488204l-5.089292,2.338608l-4.547862,0.318902l-8.229522,0.637801l-4.006471,4.464617l-5.955572,0l-7.254933,-0.850404l-4.981021,-0.212603l-6.496962,0.850404l-4.439631,1.488204l3.681621,0.956707l0.32485,4.358314l-3.031921,0.212599l-2.815341,-0.318898l-1.51598,2.976409l0,4.358314l2.05741,-0.212599l-0.54143,-4.889819l1.732521,-1.381905l2.923651,1.594508l3.465041,-2.126009l0.54143,-2.444908l0.75797,0.106299l3.681621,2.976413l1.840791,2.232305l-0.866241,2.232309l0.541391,5.42132l1.840319,1.909187l-1.0951,4.247791l-6.125435,0l-1.531329,1.803977l-1.531369,-1.352986l-2.45015,0.300666l-2.143916,-1.202653l-3.215835,-0.450995l-2.756424,-2.705964l-4.44093,-2.254973l-4.594027,-0.150333l-4.44093,-1.05232l-1.990779,-1.803977l-2.756424,-0.450991l-2.45015,-2.856297l-2.297053,0.450991l-4.44089,3.607954l-2.603327,0.150333l-4.900301,0.300662l-2.756464,4.209279l-4.900301,1.653648l-3.007953,1.004025l-2.278044,-1.777774l-5.461488,0.853746l-4.070072,1.690414l-3.913511,-0.170748l-2.278516,-1.519666l-4.157011,-0.443948l-1.548017,-3.261304l-2.422247,-2.58528z" id="path12182">Sucre</path>
   <path  class="andina" stroke="#000000" fill="#fffecc" fill-rule="evenodd" stroke-width="2" stroke-linecap="round" stroke-linejoin="round" stroke-miterlimit="4" d="m63.342861,210.66597l2.337586,5.874375l0.216564,6.803221l1.515964,2.551211l-0.108286,1.594504l-0.866264,0.637805l-1.407675,-0.425202l-1.624246,1.594504l-1.840811,2.870109l0.433132,3.295311l-0.649696,3.933116l-0.541414,2.232309l0.433132,3.826812l-0.32485,2.232309l1.082828,3.50791l-0.757978,2.551211l0.324846,1.700803l1.51596,0.850404l0.704796,1.989504l2.477901,0.757101l1.323672,-1.461546l2.361401,-0.144885l2.976349,0.458804l2.902556,-0.869312l2.436391,2.08883l3.565641,2.031911l3.461279,0.03415l3.94829,-1.809939l2.563159,-3.863579l1.577247,-1.60414l3.356771,-0.956703l5.0893,0.956703l9.204049,1.381905l3.863398,0.816253l3.391558,-0.603654l-1.732525,-0.425202l-3.140207,-3.61421l-2.923639,-2.01971l-0.649696,-2.444908l1.840811,-3.189012l-1.299396,-2.338608l-2.490507,-1.913406l0.757978,-1.913406l0,-4.145715l-0.757978,-2.870109l-2.490511,-2.551211l-6.063842,0.106303l-6.496978,-5.633919l-1.840811,0.212599l-2.598789,-0.425202l-0.541414,-2.232309l1.949093,-2.019706l1.407678,-2.126005l2.382225,-1.807107l-0.216568,-3.614214l1.407678,-2.976409l0.32485,-2.444911l-1.51596,-3.61421l-3.140207,-1.91341l0.081193,-0.004787l-2.066226,0.144885l-2.164618,1.497149l-1.869443,-3.477249l-2.01703,1.159083l-0.541154,1.014197l-2.01703,1.835215l-2.115422,-0.09659l-1.180701,1.014197l-2.01703,-0.386361l-2.361401,1.062493l-3.935669,1.014197l-0.983917,3.573839l-3.925389,2.731611z" id="path5434"><title>Táchira</title></path>
   <path  class="andina" stroke="#000000" fill="#fffecc" fill-rule="evenodd" stroke-width="2" stroke-linecap="round" stroke-linejoin="round" stroke-miterlimit="4" d="m111.7007,243.753238l-1.840811,3.189012l0.649696,2.444908l2.923639,2.01971l3.140207,3.61421l1.732525,0.425202l-3.356771,0.637805l-3.898185,-0.850404l-9.204049,-1.381905l-5.0893,-0.956703l-3.356771,0.956703l-1.435488,1.50736l3.861052,0.701311l2.631978,2.269871l3.173133,0.724427l1.574267,-1.134935l2.361401,1.014197l3.861875,-0.627837l2.066226,-0.89346l11.511831,1.569591l2.877958,2.366461l3.984864,0.289771l7.403976,2.921855l3.345318,-0.917607l8.756863,1.835215l2.631978,-1.931805l3.271524,-0.241476l3.615895,-3.042592l1.844845,-1.207378l3.886473,-0.869312l1.082309,-1.786919l2.804164,-6.592284l1.205298,-0.289771l3.44371,0.338066l2.287607,-0.772722l0.639546,-0.748574l3.5667,-3.428953l1.778729,-0.938432l0.32485,-0.531505l4.76445,-0.531501l3.356771,-3.082708l4.547881,-0.744104l5.522432,-2.551207l4.439599,-2.976413l5.41415,-5.315017l2.598789,-1.488204l4.439603,-0.318902l4.223031,0l4.331321,0.212599l3.789903,2.444911l1.732525,2.126005l2.165661,-0.531501l3.681617,-0.106299l1.949097,2.444908l1.840807,1.488204l4.981018,0.637805l2.490507,-0.425202l5.738996,0l4.547885,-2.126009l1.840811,0.956703l3.573335,0.318902l2.923639,1.594504l3.573339,-1.063003l1.949093,-0.425202l1.407678,-1.381905l1.840811,0l3.789903,2.338608l4.114749,0.744104l9.095767,-0.318902l5.738996,-0.956703l3.465057,-1.594504l5.134804,-0.942616l-1.006461,-3.102768l-1.732525,-3.082712l0,-3.720513l-3.031925,-1.913406l-2.057375,-0.212599l-2.815357,-2.65751l-4.76445,-5.208717l-3.465053,-1.275605l-2.707075,-0.318898l0.108282,-3.720513l-0.884825,-1.101874l-2.052408,-0.911866l-2.923639,-2.976409l-3.681621,-0.212599l-3.465053,0.425198l-4.223035,-0.531501l-8.121221,-0.106299l-2.707075,0l-1.19111,4.570917l-1.407678,3.614214l-2.598789,2.76381l-2.598793,1.169302l-2.165657,1.381905l-1.949097,3.189012l-0.649696,3.720513l0.32485,3.401611l-0.6497,1.169306l-2.490507,0l-3.789903,-3.720513l-1.407678,-2.65751l-2.057375,-1.594504l-3.465053,-2.01971l-1.840811,-1.913406l-1.949093,-2.019706l2.165657,-2.338608l-1.082828,-0.850404l-1.840811,-0.212603l-0.757982,-2.976409l-6.496974,-7.441026l-3.248489,0.637805l-1.624243,0l-1.624246,-0.850404l-4.331317,-0.956703l-2.057375,-1.488208l-1.407678,-1.381901l-2.815357,0.212599l-1.624246,0.744104l-6.821824,-1.807107l-4.114753,-1.807107l-3.248485,-2.126009l-1.732529,-1.063003l-1.949093,-1.594504l-2.490507,-1.594508l-2.273943,-2.870109l-3.465053,-1.700807l-5.305868,-0.637801l-4.981014,0l-3.573339,0.850404l-2.598789,1.381905l-2.057375,3.933112l0.541414,1.807107l-2.382225,0.744104l-2.815357,0.850404l-2.057375,2.976409l-1.299396,0.425202l-0.216568,-1.063003l-3.356771,2.019706l-2.382225,1.488204l-0.324846,1.807107l-2.815357,1.700807l-2.382225,2.019706l1.19111,1.488204l-1.299396,1.913406l-1.840807,2.126009l-0.216568,3.189012l-2.707075,2.444908l1.407678,2.870109l0.974546,4.889815l-1.51596,2.444911l-1.299392,2.657507l-2.923643,3.295311l-3.789903,2.976413l-3.573335,3.082708l-7.038392,5.740223l-2.923639,1.913406l0.757982,1.594504z" id="path9253"><title>Barinas</title></path>
   <path  class="guayana" stroke="#000000" fill="#fffecc" fill-rule="evenodd" stroke-width="2" stroke-linecap="round" stroke-linejoin="round" stroke-miterlimit="4" d="m313.6534,320.775904l0.602456,-0.210814l1.449908,-1.125991l3.140207,-1.700803l7.254956,-7.015828l3.248489,-3.082708l0.32485,-3.082712l0.649696,-3.720513l3.356771,-5.315017l0.866264,-4.039415l0.108282,-9.03553l-2.598789,-3.295311l2.382225,-1.700807l2.598789,-1.275602l0.6497,-1.488208l3.465053,-0.956703l2.165657,-2.232305l2.490511,-1.807107l4.547881,-0.744104l3.031925,-0.956703l3.789903,-2.232309l2.923639,-5.52762l3.031921,-3.082708l2.165661,-3.295311l2.707071,-2.338608l2.273943,-1.381905l3.789903,0.637801l2.923639,-0.850404l1.732529,-1.275602l3.789911,0.212599l3.898162,-0.318902l1.2994,1.381905l1.407671,-1.700803l2.273951,-0.637805l2.273951,-1.594504l1.732521,1.169302l1.62425,-1.381905l2.815341,-1.063003l0.97455,-3.720513l1.407671,-2.657507l2.49053,-0.744104l4.547862,-0.425202l3.031921,1.169306l3.031921,1.169302l2.057371,0.531501l5.955572,0.425202l6.821812,2.232309l3.898201,1.594504l2.707071,2.870109l2.81538,1.91341l1.08282,2.976409l1.2994,-1.807107l4.439592,-1.594504l3.573351,-2.126009l3.356771,-1.807107l3.356771,-0.7441l4.223012,-0.744104l1.732521,-1.700807l1.19113,-1.381905l-1.51598,-2.444908l-0.97455,-3.50791l1.08286,-2.338608l1.732521,-0.318902l3.356771,0.637801l1.732521,-0.7441l2.382221,-0.106299l0.75797,-2.126009l0.97455,-1.594504l2.49053,1.063003l1.62425,2.338608l0,1.700803l1.624211,-0.637801l2.16568,1.381905l2.490491,0.106299l1.9491,0.425202l3.248501,0.106299l2.273951,-0.7441l1.949061,-2.232309l1.62425,-2.65751l2.273951,-3.189008l3.248501,-0.318902l5.305832,-1.275605l4.764481,-1.381905l3.898162,0.425202l1.62425,-1.700807l2.707071,-1.063003l2.598801,0.212603l2.165641,-1.913406l3.356771,-2.76381l2.382221,-1.488208l3.465081,0.212603l4.872712,1.381905l4.006471,0.956703l3.789931,-0.637801l1.732521,-1.063006l4.331321,-1.488204l1.515941,0.425202l-0.75797,2.65751l-2.923651,2.657507l-3.573312,3.614214l-3.898201,2.444908l-2.598801,1.381905l-2.490491,1.381905l-2.057371,-1.913406l0.866241,3.295311l-0.32485,4.464617l-0.43312,3.720513l1.515941,1.275602l0.6497,2.444911l-0.974511,3.720513l0.21654,3.401611l-2.165641,2.551207l1.08282,0.744104l0.10827,2.126009l-0.43312,2.763806l1.19113,1.063006l1.08282,1.488204l1.840791,1.063003l1.732521,-1.063003l0,-1.700807l1.84083,-0.850404l1.2994,2.338608l-0.21658,2.126009l-2.273951,2.551207l0,2.444911l-0.866241,2.657507l-2.057371,1.913406l-2.05741,-0.531501l-1.515941,-1.807107l-0.10827,2.338608l-1.84083,0.850404l-1.840791,0.744104l-1.9491,-0.744104l-1.51598,1.063006l-0.541391,1.063003l1.08282,1.488204l2.382221,0.744104l0.97455,1.700803l-1.62425,2.126009l0.21658,1.275605l2.707071,-0.637805l1.9491,0.425202l2.057371,1.594508l2.490491,0.212599l0.54143,1.807107l-2.057371,2.232309l-3.789931,2.126005l-3.465041,-0.318902l-1.62425,-2.126005l-3.789891,-0.956703l-3.356771,0.7441l-0.75797,2.126009l-0.75801,2.019706l2.382221,-2.444908l3.03196,-0.850404l2.923611,0.318902l1.19113,1.488204l1.191091,1.275605l1.9491,-0.106299l1.84083,0.106299l2.382221,-0.744104l1.9491,-1.381905l1.949061,-1.700803l1.2994,0.425202l1.407671,2.551207l0.97455,1.594504l0.21658,3.401615l0.97455,2.126005l-1.407671,3.507914l-4.114781,5.846518l-2.598761,4.039415l-0.32485,2.126009l1.407671,1.594504l1.515941,3.614214l-0.6497,0.425202l-1.515941,1.275602l0,2.01971l0.6497,-1.807107l1.407671,-1.063003l1.19113,0.7441l1.515941,2.976409l0.43312,-1.594504l-1.732521,-3.50791l-2.057371,-3.295311l-0.541391,-2.444911l3.248461,-5.952818l5.197601,-6.590626l0.43312,-1.913406l-0.97455,-0.956703l-1.62425,-2.551207l0.43316,-2.976413l-0.6497,-1.913406l-0.54143,-1.807107l-3.031921,-2.551207l1.08282,-2.019706l3.248501,-2.76381l1.732521,-1.381905l1.9491,0.212599l2.165641,-0.425202l0.21658,-1.700803l-2.273951,-3.401615l0.6497,-1.063003l0.43312,-1.169302l-0.866241,-0.850404l0,-1.169306l1.2994,-1.594504l2.382221,0.637801l1.9491,1.594508l0.97455,0.212599l0.43312,-1.063003l0.6497,-1.275605l-1.2994,-1.275605l0.43312,-0.956703l-0.10827,-1.381905l-1.51598,-1.700803l-0.32485,-1.913406l0.54143,-1.275605l1.9491,-0.956703l0.866241,-1.700807l0.21658,-1.807107l-0.43312,-1.700803l-1.84083,-1.063006l0.10831,-1.169302l2.923611,-1.594504l0.10831,-2.338608l1.299361,-1.91341l-0.974511,-1.488204l-1.40771,0.106299l-1.840791,-0.637801l-1.9491,-1.594504l-2.057371,-0.850404l-0.43312,0.956703l-1.73256,2.338608l-2.923611,0.744104l-3.465081,0.106299l-1.515941,0.956703l-1.84083,0.212599l-1.732521,-1.063003l-0.6497,-1.700807l-0.10827,-2.232305l0.32485,-2.65751l-0.75797,-0.744104l-0.21658,-2.870109l0.43312,-3.50791l3.681621,-2.444911l1.62425,0.318902l0.86628,-0.425202l-0.54143,-0.531501l0.97455,-1.807107l4.331321,-2.65751l1.62425,-2.657507l3.248461,-2.232309l1.9491,-1.913406l-0.97455,-1.807107l-0.10827,-1.381905l1.08282,-1.275605l3.764861,-2.435488l0.241611,2.222889l3.031921,2.65751l4.981021,4.889815l0.75797,0.212603l1.62425,-0.956707l3.465081,0.106303l2.598761,0.637801l2.707071,1.488204l2.81538,1.700807l1.840791,2.444908l1.51598,2.551211l0.6497,1.594504l2.707071,1.488204l2.490491,-0.212599l1.732521,-1.275605l3.031921,-0.531501l3.681621,-0.850404l1.84083,0.212599l2.490491,4.145715l2.49053,4.783519l3.248461,2.338608l5.089331,1.275602l3.681621,1.063006l1.299361,1.169302l1.08286,-0.106299l2.273911,-2.551211l3.465081,-1.063003l3.140191,-0.637801l1.84083,-1.913406l2.165641,-0.956703l3.356771,-1.594508l1.19113,-0.850404l2.165641,2.232309l1.407671,3.933116l2.057371,0.8504l4.331321,-1.381905l3.140231,-1.594504l0.10827,-1.169302l2.923651,0.7441l2.273911,-0.956703l1.73256,-0.7441l16.539805,-0.333797l-1.46706,2.421436l-3.68843,1.209611l-4.209158,-0.648851l-2.922116,0.2732l-2.087203,2.731985l0.278291,3.688178l-0.834873,3.414979l-3.200368,2.322188l-3.478659,0.819595l-0.695747,1.775792l1.113164,3.005181l2.226368,1.092795l3.478659,3.824776l0.834873,1.775792l-1.391456,2.595384l-1.530621,1.365995l2.782951,3.141779l3.478659,1.229393l3.061242,-2.048988l4.174406,0.819595l6.122444,4.234578l-3.339493,4.780973l-2.922116,2.731985l-2.782911,0.682993l-5.148445,5.190771l-5.565862,0l-3.061242,4.371176l-6.400775,-2.185586l-1.391456,0.546396l-1.948077,-1.365995l-2.226329,1.092795l0.556582,2.18559l-3.200368,0.546396l-4.174406,0.136598l-2.365494,-0.956193l-2.643785,0.546396l-2.226368,-2.048988l-0.556582,0.546399l0.695747,2.048988l2.087203,2.868583l0.834873,3.005181l-0.695747,2.731985l2.087203,3.82478l0.278291,3.005181l-0.556582,2.868583l0.417456,3.961378l1.391456,3.141783l-2.504659,4.097976l-3.75695,1.775788l-1.808912,1.365995l-1.113164,3.141783l-3.061242,0.956193l-1.808912,2.185586l-0.974039,0.2732l39.656859,43.301918l0.076195,2.162655l1.9491,3.189023l-4.547901,6.27172l-5.630722,3.72054l-5.955532,2.55118l0,0.956707l-1.73256,1.594512l0.10831,2.976409l-1.84083,2.870121l-2.057371,0.42519l-8.121213,0.850419l-3.465041,-1.488224l-3.465081,0.531517l-0.541391,1.062995l0.97455,2.019702l-0.21658,1.807126l-1.84083,0.531478l-3.681621,-0.42519l-4.764442,2.232316l-0.10827,4.677208l-2.057371,2.019702l-6.821852,-0.212614l-3.356771,0.744131l-4.872712,4.145692l-3.031921,0.850419l-2.16568,-0.956707l-2.382221,-0.106288l-6.605233,3.933116l-13.318814,-4.677247l-2.815341,0l-0.75801,1.488224l-3.465041,2.12599l-0.10827,2.763833l-0.97455,0.85038l-7.038392,-0.212576l-3.681621,1.594473l-1.2994,4.358345l0.86628,3.401599l2.273911,6.590622l-1.515941,4.889823l-6.713542,3.082697l-3.140231,-1.913414l-5.305832,-5.315013l-5.739031,-5.208725l-3.031921,-4.145692l-2.490491,-2.232316l-3.248501,-1.488185l-3.573312,0.318902l-2.382221,5.421301l-2.707071,-0.42519l-4.114781,-4.252018l-4.006471,-0.212614l-2.490491,1.275609l-3.031921,0l-2.598801,-1.169321l-4.006471,1.807126l-3.031921,2.019702l-2.057371,0.106288l-0.86628,-1.488185l-1.515941,-5.84653l-2.49053,-3.507887l-3.140191,-1.275609l-7.363242,-1.063034l-4.981021,0.956707l-7.254933,0.637805l-1.9491,-2.019702l-1.808833,-2.900064l0.63073,-2.886657l-0.59035,-5.312463l-0.393567,-5.022692l-1.180701,-3.187478l-3.542102,-0.772722l-3.738885,0.19318l-6.493853,-1.931805l-3.148535,-4.15338l-5.313153,-7.630629l-4.722802,-8.30676l-0.688742,-5.312463l-3.148535,-3.477249l-0.491959,-2.607936l1.574267,-2.221575l5.214761,0.19318l1.967834,-1.545444l-0.491959,-2.994297l-2.754968,-1.835215l-0.491959,-1.738624l2.361401,-1.255673l0.196783,-1.931805l-6.001895,-5.988564l0.098392,-2.221575l2.066226,-1.545444l-1.082309,-2.221575l-1.771051,-0.09659l-3.640493,-0.579541l-3.640493,-0.09659l-3.050143,0.772722l-1.771051,2.511346l-3.345318,1.255673l-3.44371,-3.380658l-0.393567,-3.187478l0.885525,-3.9602l2.164618,-7.727219l-0.59035,-3.090888l-3.345318,-0.965902l-4.722802,0.482951l-2.656576,1.062493l-4.329235,8.01699l-4.624411,7.051087l-2.951751,1.062493l-2.85336,-0.19318l-5.509924,2.801117l-2.361401,-0.289771l-1.279092,-1.545444l-0.196783,-5.119283l-0.983917,-1.642034l-1.869443,-0.482951l-2.951751,1.835215l-4.919586,5.215873l-4.132452,2.221575l-4.427627,0.965902l-10.035955,0.386361l-7.969729,2.994297l-1.180701,-2.318166l-7.084203,-0.289771l-0.688742,-3.573839l2.263009,-5.409053l1.082309,-4.346561l-1.574267,-5.602234l-6.88742,-2.511346l-3.246927,0.965902l-1.574267,-1.062493l-1.561968,-2.632084z" id="path15225"><title>Bolívar</title></path>
   <path  class="insular" stroke="#000000" fill="#fffecc" fill-rule="evenodd" stroke-width="2" stroke-linecap="round" stroke-linejoin="round" stroke-miterlimit="4" d="m475.314811,78.349866l0.6497,2.126009l2.815341,0.956703l2.81538,0.425202l2.490491,-1.169306l0.86628,-0.425202l0,-2.126005l1.840791,-1.063006l4.006471,-3.401611l1.9491,1.700807l1.732521,2.444908l1.2994,2.65751l-1.191091,2.444908l-2.923651,1.275605c0,0 -0.54143,0.7441 -0.75797,1.275602c-0.21658,0.531501 -0.75801,1.063006 -0.75801,1.063006l-0.75797,-0.956703l-1.62425,0.318898l-2.598801,1.063003l-2.598761,0.106303l-2.057371,-0.956703l-1.84083,-1.488208l-1.62425,-1.169302l-1.9491,0.956703l-3.356771,0l-2.815341,-0.637801l-3.031921,-1.275605l0,-1.275605l1.732521,-2.444908l3.140231,-0.531501l3.140191,-0.425202l0.6497,-0.212603l0.75797,0.744104zm1.19113,11.586741l-1.51598,-0.106299l-1.08282,0.531501l0.21658,1.488204l2.490491,0.106299l2.057371,-0.318902l0.54143,-1.381901l-1.407671,-0.744104l-1.2994,0.425202zm9.745463,0.850404l-0.43316,2.019706l1.73256,0.956703c0,0 1.624211,0.744104 2.057371,0.744104c0.43312,0 1.62425,-0.850404 1.62425,-0.850404l-0.21658,-1.381905l-1.2994,-0.744104l-2.382221,-0.956703l-1.08282,0.212603z" id="path2177"><title>Nueva Esparta</title></path>
   <path  class="guayana" stroke="#000000" fill="#fffecc" fill-rule="evenodd" stroke-width="2" stroke-linecap="round" stroke-linejoin="round" stroke-miterlimit="4" d="m578.725014,195.81177l-2.057371,2.338612l0.6497,1.169302l1.84083,-0.212599l0.6497,-1.91341l-1.08286,-1.381905zm-10.070313,-61.441611l0.21658,2.976409l0.97455,-0.318898l0.21654,-2.126009l-1.407671,-0.531501zm64.029037,64.084122l3.522109,-0.150333l0.612547,2.254973l-1.531369,1.202649l-2.297014,-0.601324l-1.225095,-1.503315l0.918821,-1.202649zm22.817157,-3.307292l-0.765684,1.352982l1.378232,0.300662l-0.612547,-1.653644zm-8.422449,-1.352982l-1.225095,1.803977l0,-1.503315l1.071958,-1.202653l0.153137,0.901991zm4.44093,-2.254973l-2.143916,1.653644l1.684505,0.450995l0.918821,-0.901987l-0.459411,-1.202653zm-1.378232,3.006626l-1.684466,1.202653l1.378192,1.05232l3.368972,-0.300662l0.153137,-1.803977l-3.215835,-0.150333zm-18.069953,-4.810603l-3.368972,3.156959l0.153137,1.202653l3.368972,-2.254973l1.531369,-2.555635l-1.684505,0.450995zm1.378232,4.660274l-3.675245,0.450995l0.153137,1.352982l2.909561,0.601324l3.981519,-0.751658l1.837603,-3.006626l-3.828382,0.601324l-1.378192,0.751658zm-2.603327,4.960936l0.918821,-1.95431l-2.603287,-0.150329l-1.378232,1.653644l1.378232,1.803977l1.684466,-1.352982zm9.34127,-37.131861l0.153137,-4.509945l0,-2.104639l0.918821,-0.300662l1.837603,1.202653l2.297014,2.705964l1.225095,2.555635l0,1.503315l-1.99074,0.601324l-2.45019,2.856297l-3.675245,2.405306l-0.918782,-1.352986l0.918782,-1.653644l1.531369,-1.803977l0.153137,-2.104639zm-1.071958,10.523197l-0.459411,2.856297l-1.071919,0l0.459371,-1.954306l1.071958,-0.901991zm0.918821,0.300666l0.918821,-3.156963l2.143877,-0.901987l0.918821,1.352982l-0.765684,2.405302l-1.837603,1.352986l-1.378232,-1.05232zm5.512848,-3.758288l2.143916,-1.503315l1.378192,0.601328l-0.306234,1.202649l-1.531369,0.450995l-1.225095,1.503315l-1.071919,0.300662l-0.153137,-1.202653l0.765645,-1.352982zm4.134656,2.405302l-1.531329,1.202653l-1.378232,-0.300662l0.459411,-1.503315l0.918821,-0.601324l1.531329,1.202649zm0.153137,1.05232l-0.765684,1.05232l1.225095,1.352986l1.531369,-1.352986l-0.612547,-1.202649l-1.378232,0.150329zm-9.647504,2.555635l-3.522109,2.856297l-3.675245,3.607954l-1.071958,2.405302l2.756424,-0.300662l3.215874,-3.156959l2.756424,-3.156959l3.215835,-1.653644l-0.612547,-1.202653l-3.062698,0.601324zm-3.828382,8.568891l1.071958,2.555635l4.287753,-1.954306l1.684505,-3.00663l0.459411,-2.705964l-2.297014,-0.300666l-1.990779,1.803977l-2.297014,2.254973l-0.918821,1.352982zm-6.737943,2.254973l0.765684,-1.803977l-1.225095,0.450995l-0.918821,1.05232l1.378232,0.300662zm15.313529,-8.568891l0.153137,-1.202653l-1.684505,0.601328l0.612547,1.05232l0.918821,-0.450995zm2.756424,-0.601324c0,0 -0.459411,2.405302 -1.225095,2.405302c-0.765684,0 -1.531329,-0.751658 -1.531329,-0.751658l1.071919,-1.653644l1.684505,0zm-11.944557,12.026512l-2.603287,3.156959l2.297014,0.751658l3.522109,-0.901987l1.531369,-3.307292l-4.747203,0.300662zm7.350491,-1.202653l-0.153137,1.503315l2.603287,0l0.306274,-1.202649l-2.756424,-0.300666zm3.215835,2.254973l-1.531329,2.555635l-1.990779,1.202653l-0.612547,1.503311l1.684505,0.601328l2.45015,-3.758288l3.522109,-1.352982l0.306274,-0.450995l-3.828382,-0.300662zm3.675245,-1.803977c0,0 0.153137,1.803977 0.765684,1.653644c0.612547,-0.150329 1.531369,-2.254969 1.531369,-2.254969l-2.297053,0.601324zm47.258642,21.942126l-1.576038,-0.649349l-2.598801,-4.783516l-3.573351,-2.126009l-5.414142,-2.870109l-6.821812,-2.019706l-4.764442,-0.425202l-5.197601,0.212599l-0.6497,1.063003l12.885694,4.039415l-0.32485,0.956703l-12.777384,-2.976409l-1.51598,0.425202l-0.75797,2.444908l-2.598801,-1.700807l-5.305872,-0.531501l-4.006471,-2.444908l-2.598761,0.425202l-3.898201,0.425202l-2.273951,-0.106303l-0.43312,1.488208l-2.165641,-1.169306l-2.598801,0.637805l0,3.826812l-0.32485,1.275602l-1.51598,-0.212599l-0.866241,-0.425202l-0.86628,-0.850404l-1.515941,0.318902l-2.81538,0.425202l-1.9491,-0.637805l3.465081,-0.106299l-0.10831,-1.488204l-3.248461,-0.850404l-3.681621,-1.913406l1.840791,-1.700803l0.32485,-4.145715l2.81538,-4.039415l1.624211,-2.338608l-4.980982,-1.488204l-7.038392,2.338608l10.503434,-4.996118l5.738992,-5.740219l1.9491,-4.996118l-0.43312,-2.338608l-2.707071,2.870109l-3.248501,4.039415l-1.51598,0.425202l2.057371,-2.551211l-1.08282,-0.956703l-2.598801,1.063006l-1.840791,1.913406l-0.54143,-2.551211l6.172152,-2.76381l-0.21658,-2.126005l1.732521,1.488204l2.273951,-0.637801l0.21658,-2.870113l3.573312,-4.464613l0.21658,-4.996118l-1.732521,-2.338608l-0.10827,-1.913406l-0.43316,-2.232309l-3.031921,-1.063003l-5.630722,0l-1.191091,-1.169302l-0.86628,0.212599l-0.32485,1.275605l-4.981021,-1.913406l-3.140191,-2.126009l-2.707071,-3.082712l-2.815341,-4.252014l-6.497002,-4.358314l-1.191091,0.106299l-0.54143,0.744104l5.847301,7.972527l-4.114781,-3.401611l-6.605233,-1.807107l-2.923651,-0.744104l-1.407671,0.850404l0.97455,1.807107l1.515941,1.169302l-2.165641,0.531501l-4.006471,-4.358314l-3.573351,-3.082708l-2.490491,-2.01971l-1.2994,-1.169302l-1.19113,-0.744104l-3.031921,-1.807107l-4.656171,0.106299l-3.248461,2.232309l-0.86628,2.232309l-0.6497,3.826812l0.53529,2.661181l0.22268,2.972738l-2.165641,2.232309l-1.08282,2.65751l-2.923651,3.826812l-0.54143,1.913406l1.40771,1.594504l0.974511,2.870113l1.08286,1.381905l-0.21658,1.275602l-0.75797,0.531501l-1.08282,1.91341l0,1.913406l1.840791,1.488204l2.273951,1.488204l0.75797,1.381905l-0.32485,2.019706l2.16568,0.956703l1.949061,1.700807l1.73256,1.169302l2.382221,-1.381901l2.707071,-2.444911l0.97455,0.744104l0.10827,2.551207l1.9491,1.913406l-0.6497,2.338608l0,2.01971l0.6497,2.019706l1.191091,1.381905l1.19113,0.425202l0,2.126009l-1.407671,1.381901l-0.86628,1.381905l-1.2994,2.232309l-0.6497,1.169306l0.54143,1.381905l1.62425,1.169302l0.32485,0.850404l-0.54143,0.956703l-1.2994,-0.637801l-0.97455,-0.212603l-0.866241,1.488204l0.866241,1.169306l-1.08282,0.850404l-2.382221,0.531501l-3.356771,-0.318902l-3.898201,1.700807l-2.382221,0.106299l-1.732521,1.169306l-4.223051,1.381905l-2.273911,1.700803l-2.117744,1.425351l0.312256,2.15934l7.818324,7.478808l1.113164,0.068301l1.530621,-0.819595l3.409115,0.204899l2.574203,0.682993l5.426736,3.005185l1.808912,2.595384l1.530621,2.458786l0.695708,1.639194l2.922116,1.502589l2.574203,-0.341497l1.808912,-1.229393l6.470318,-1.297694l1.878495,0.2732l4.730988,8.94725l3.409115,2.390485l8.557521,2.185586l1.600203,1.229393l1.043582,-0.273196l2.365494,-2.595387l3.409115,-1.024494l3.130785,-0.478095l1.669786,-1.980691l5.426736,-2.390485l1.391456,-1.024494l2.087203,2.595384l1.530621,3.551581l2.156786,0.956193l4.174406,-1.434292l3.130785,-1.57089l0.139165,-1.229393l3.061202,0.887896l3.896115,-1.91239l16.34979,-0.204899l8.209647,-6.693363l4.939736,0l0.417417,-2.458786l1.530621,-4.985872l2.782951,-2.185586l5.148445,-1.365995l1.530582,-2.527083l-0.626165,-1.775792l-0.778318,-1.131578zm-72.525949,-61.479288l-1.837603,-2.555635l-1.837642,-0.450995l-0.459411,0.901991l1.684505,1.352982l1.684466,1.202649l0.765684,-0.450991z" id="path2269"><title>Delta Amacuro</title></path>
   
   <path  class="occidental" stroke="#000000" fill="#fffecc" fill-rule="evenodd" stroke-width="2" stroke-linecap="round" stroke-linejoin="round" stroke-miterlimit="4" d="m120.311671,82.950571l4.058131,4.434825l1.624246,0.425202l0.324846,1.488204l3.140207,2.126009l1.949093,2.870109l-0.757982,2.551211l0.974546,3.61421l2.273943,3.507914l4.981018,3.933112l2.165657,0.637805l11.477992,0.318898l4.872735,-1.807107l2.815357,-1.275602l7.254956,-0.212603l3.356771,-1.700803l2.815357,0l5.197582,-3.826816l3.898185,-0.106299l9.095767,-3.082708l3.140207,-1.807107l-1.840811,1.807107l1.624243,0.7441l2.490507,-0.425202l5.305868,-2.870109l3.465053,0.531501l6.063846,2.976413l5.63071,-0.850404l6.172128,0.531501l4.006471,0.637801l4.114749,1.063006l1.949097,-0.318902l2.057375,-1.169306l4.547881,0l2.273943,2.65751l1.949093,-0.637801l2.923639,-2.76381l6.388696,-0.744104l1.949093,0.212603l1.949093,2.870109l-2.707075,-2.76381l-1.299392,2.232309l1.19111,2.019706l1.299396,1.488204l3.681621,0.956703l4.223031,-0.212599l6.821828,0l3.248489,-0.318902l-4.223035,-7.015824l-0.433132,-4.783516l1.299396,-2.019706l1.407678,-0.850404l-2.057379,-1.700807l-1.624243,-0.531501l2.057375,-1.488204l-0.649696,-3.401615l-1.191114,-2.126005l-6.930106,-7.866228l-6.60526,-4.039415l-4.547885,-2.126005l-5.847278,-3.826812l-2.057375,-1.169306l-8.987485,-0.318898l-5.305864,-2.232309l-5.0893,-1.488204l-2.165661,-0.425202l-3.573335,2.338608l-3.573339,-1.169306l-5.95556,0.744104l-1.624246,1.063003l-3.789903,-2.019706l-6.063842,-13.393848l-0.866264,-7.972527l-2.057375,-3.614214l-0.974546,-4.570917l-2.057379,-3.082708l-4.656167,-1.488204l-3.248485,0.8504l-2.815357,2.444911l-3.573339,1.381905l-1.299396,2.444908l-2.057375,3.614214l-1.732529,4.783516l0.974546,3.189012l3.031925,2.870109l-0.866264,5.846518l0.433132,1.913406l2.057375,0.212603l4.872735,-1.381905l7.79637,-1.063003l2.707075,-0.850404l2.598789,-0.531501l1.624243,1.807107l0.97455,3.61421l1.51596,3.295311l-1.191114,2.551211l-2.598789,1.594504l-3.789903,-0.318898l-2.273943,-2.126009l-3.465053,-2.338608l-2.057379,0.956703l0.108286,2.65751l-2.490511,0.318898l-1.624243,-0.318898l-0.866264,0.318898c0,0 -1.19111,1.700807 -1.51596,2.232309c-0.32485,0.531501 -2.165661,2.01971 -2.165661,2.01971l-6.821824,1.488204l-4.981014,1.488204l-2.382225,1.169302l-2.057379,1.488208l-9.853745,0.318898l-8.229507,2.976413l-8.987485,3.720513l-5.95556,3.826812l-5.790659,2.368396z" id="path4449">Falcón</path>
   
   <path  class="llanos" stroke="#000000" fill="#fffecc" fill-rule="evenodd" stroke-width="2" stroke-linecap="round" stroke-linejoin="round" stroke-miterlimit="4" d="m312.890407,320.076904l-2.598789,-1.169306l-3.681621,-1.807107l-4.439599,-1.169302l-3.248489,0.106299l-5.522432,-0.318902l-3.465053,0.850404l-0.649696,1.913406l-5.197582,1.913406l-4.114753,-1.807107l-5.305864,2.76381l-1.840811,-0.7441l-2.057375,0.637801l-3.248489,0.425202l-2.382225,-1.275605l-3.248489,-0.106299l-3.681617,1.594504l-3.465057,0.106303l-1.949093,1.488204l-2.165657,0.106299l-2.598793,-1.913406l-2.815357,0.106299c0,0 0,0 -1.407678,-0.850404c-1.407678,-0.8504 -5.089296,-0.212599 -5.089296,-0.212599l-5.305868,-1.488204l-4.223031,-0.637805l-3.898189,2.01971l-3.356771,3.826812l0.974546,1.063003l-0.866264,1.063003l-2.707071,-1.063003l-1.624246,-3.295311l-5.197582,1.594504l-1.19111,-0.531501l-0.216564,-2.232305l-3.789903,-3.614214l-1.407678,-1.913406l-1.515964,-1.913406l-1.082828,-0.637805l-2.165657,-2.657507l0,-1.488208l-1.840811,-2.551207l-1.407678,-0.425202l-6.28041,-7.759928l0.108282,-1.275602l-1.949093,-2.76381l-1.407678,-0.425202l-7.038392,-8.18513l-0.216568,-1.807107l-2.598789,-2.763806l-5.305864,-0.106303l-4.547885,2.551211l-5.95556,-4.145715l-2.746609,-0.119339l-2.756432,-4.209279l-2.756432,0l-7.963034,0l-6.737947,0l-2.756432,3.00663l-3.368976,3.006626l-3.062706,-0.300662l-1.531353,-2.705964l-23.889091,-0.601328l-1.531353,-2.104639l-1.225079,-0.300662l-2.450166,2.104639l-3.675245,0l-3.368972,1.202653l-7.350491,0.300662l-2.450162,-1.202653l-4.900328,-5.712594l-0.61254,-1.503315l-1.531353,-3.908617l1.531353,-3.307288l-3.368976,-3.307292l-7.924846,-0.443419l1.246462,-1.473132l2.382225,-0.106303l3.031921,0.425202l2.923639,-0.8504l2.382225,2.019706l3.681621,2.126005l3.356771,0l4.006467,-1.807103c0,0 1.988796,-2.914406 2.644616,-3.945568c0.940361,0.126328 3.852362,0.650257 3.852362,0.650257l2.598793,2.232305l3.140203,0.850404l1.624246,-1.169302l2.382225,0.956703l3.789903,-0.531501l2.057375,-0.956707l3.681621,0.318902l7.904653,1.169306l2.923639,2.444908l4.006471,0.212599l7.363238,2.976413l3.356771,-0.956703l6.063846,1.488204l2.598793,0.425202l2.707071,-2.01971l3.140207,-0.106299l3.681621,-3.082708l1.840807,-1.169306l3.898189,-0.956703l1.082828,-1.594504l2.815357,-6.696926l2.165657,-0.318898l2.382225,0.318898l2.490511,-0.7441l4.656164,-4.145715l2.923643,-1.488204l3.681617,0.425202l2.382225,-2.232309l1.949093,-1.381905l6.821828,-1.063003l5.197582,-3.720513l6.172128,-4.358318l4.006467,-2.657507l6.713542,-0.318902l3.898185,-0.531501l3.898189,1.169302l1.407678,2.338608l2.057375,1.063006l1.51596,0l2.815357,-0.744104l2.707075,2.76381l1.407678,1.700807l6.496974,0.531501l2.490507,-0.956703l4.439603,0.106299l4.331317,-1.594508l2.273943,0.531505l4.223035,0.531501l2.598789,1.275602l2.273943,0l3.031921,-1.594504l1.51596,0.212599l1.949093,-1.488204l5.739,3.082712l8.662635,-0.425202l3.898185,0.425202l3.140207,-1.488204l3.681617,0l2.815357,-1.913406l2.707075,-0.318902l2.598789,2.551207l2.490511,0.318902l3.573335,0.425202l3.898185,1.594504l2.382225,1.700807l4.114753,2.76381l7.471524,0l5.089296,1.169302l3.789903,0.637805l4.547885,1.594504l4.331317,1.488204l3.248489,-1.594504l0,-2.232309l3.465053,-0.637801l1.407678,-0.850404l0.541414,-1.275605l1.840811,1.807107l0.866264,1.169306l2.707075,1.594504l3.681617,-0.318902l0.866264,2.444911l0.589079,1.138749l-2.213322,1.093556l-3.573339,2.551211l-3.248489,5.315017l-3.140203,3.507914l-1.407678,3.295311l-3.898185,1.488204l-3.898189,0.425202l-3.248485,2.019706l-3.465057,3.401615l-3.789903,-0.212603l-5.522428,1.275605l-2.057379,2.232309l-0.324846,3.933112l-1.840811,3.189012l0.974546,-1.700807l3.031921,0.106299l1.624246,3.401615l-0.866264,5.208717l0.433132,3.50791l-2.923639,3.082712l-2.815357,8.078827l0,4.570917l-2.165661,2.126009l-4.114753,1.169302l-0.757978,3.189012l-4.006471,2.65751l-2.988794,2.640669l-0.367977,0.123141z" id="path2265"><title>Apure</title></path>
   <path  class="oriental" stroke="#000000" fill="#fffecc" fill-rule="evenodd" stroke-width="2" stroke-linecap="round" stroke-linejoin="round" stroke-miterlimit="4" d="m488.260956,126.087813l-0.28998,1.861031l-1.837642,0.150329l-2.143877,0.601328l-0.459411,1.05232l0.306274,2.405302l0.306274,1.954306l2.45015,-0.150329l1.378232,3.156959l1.531329,1.803977l-0.918782,4.660274l7.044217,9.621211l-7.044217,5.862927l-0.153137,2.705964l2.143877,3.457621l2.143877,4.209283l5.359751,-1.803977l5.972259,3.307288l5.206614,4.05895l6.125396,4.960936l4.287793,3.156959l2.143877,7.215909l3.062737,1.803977l8.422409,-1.05232l4.594067,-0.450995l1.837603,0.601328l-1.071919,1.803977l-2.603327,0.751658l-1.378192,0.300662l0.459411,3.758284l1.378192,3.156959l4.287793,1.653648l6.89108,1.954306l4.747203,1.95431l1.378232,2.705964l-1.990779,0.751658l-1.684466,-0.751658l-1.531369,2.104639l-3.828382,3.607954l-3.368972,-1.05232l-4.134656,-0.751658l-2.603287,-0.901987l-1.837642,-1.05232l-3.675245,1.653644l-2.297014,-1.352982l-2.909561,3.307292l-3.215835,0.150329l0.612547,1.503315l-4.287793,1.95431l-1.684505,1.503311l-3.522109,1.202653l-4.44093,1.05232l-2.909561,-1.503315l-5.359712,2.555635l-1.837642,0.450995l-2.909561,3.607954l-2.297014,3.156959l-3.981519,1.95431l-4.134656,0.601324l-5.666025,-4.810607l-4.134656,-2.705964l-3.522109,1.653644l-2.297014,2.856297l-1.837603,1.202653l-1.837642,-1.503315l-2.909561,-0.300662l-3.981519,1.954306l-1.684505,3.758288l1.684505,3.156959l3.215835,0.901991l0.306274,1.954306l-2.603287,1.202653l-5.206614,0.150329l-3.215835,1.803977l-3.062698,2.104639l-3.522109,0.751658l-2.909561,-0.300662l-4.287793,-2.555635l-2.756424,-3.006626l-9.034996,-2.405306l-5.972259,-2.405302l-2.45019,0.150333l-2.909561,-1.503315l-1.531329,0.300662l-1.225095,-2.405302l1.684466,-3.607954l3.981519,-5.411932l0.306274,-2.254973l4.747203,-4.810603l2.45015,-3.758288l1.837642,-1.503311l3.062698,-9.771544l-0.153137,-2.555635l-0.918821,-2.856297l1.378232,-3.00663l2.45015,-0.601324l2.756424,0l2.143916,-0.300662l3.368972,0.601324l1.378232,1.202653l3.062698,0.300662l3.522109,-7.516571l-0.306274,-0.901987l-8.269312,-5.261603l-1.531329,-0.901987l0,-2.856297l-1.990779,-2.705968l-5.512848,-1.653644l-2.143916,0l-4.287793,-3.908617l-1.837603,-3.00663l-1.531369,-1.954306l0,-2.104639l2.603327,-0.450995l2.909561,-2.405302l-0.459411,-1.503315l-2.143916,-1.95431l-3.062698,-0.150329l-6.278533,-5.111269l-0.612547,-0.601324l-1.071919,1.954306l-1.684505,0.300662l-6.125396,0.300666l-1.071958,-1.202653l-0.306274,-2.555635l-2.297014,-0.751658l1.071919,-5.111266l-0.306274,-2.555635l-1.531329,-3.00663l0.153137,-2.705964l0.306274,-1.95431l3.215835,0.150333l3.675245,-1.653648l2.143877,-3.156959l2.143916,-1.05232l2.143877,-1.653644l0.410215,-0.919508l13.992837,2.649795l3.031921,1.594504l3.248501,-1.169302l4.223051,-0.744104l5.197562,0.850404l4.547901,-0.744104l1.08282,-1.275602l0.75797,-3.614214l3.898201,-2.232309l8.053362,-0.571606l2.549684,2.568091l1.531369,3.307292l4.134656,0.450991l2.297014,1.503315l3.981519,0.150333l3.981519,-1.653648l5.512848,-0.901987l2.127622,1.746923z" id="3"><title>Anzoátegui</title></path>
   <path  class="oriental" stroke="#000000" fill="#fffecc" fill-rule="evenodd" stroke-width="2" stroke-linecap="round" stroke-linejoin="round" stroke-miterlimit="4" d="m553.711676,209.311917l0.10827,0l0.6497,-0.531501l2.165641,-1.807107l2.923651,-2.551207l3.140231,-1.488204l4.656132,-0.106299l1.19113,-0.956707l2.707071,-1.700803l2.707071,-0.850404l0.21658,-1.381905l1.2994,-2.019706l2.923611,-1.594508l2.273951,-1.594504l2.16568,-1.063003l1.840791,-3.720513l0,-2.01971l-1.2994,-2.126005l-0.619514,-3.234989l1.071919,-3.758288l-2.297014,-0.751658l-2.603287,1.352982l-2.143916,-0.601324l-2.756424,-0.300662l-1.99074,0.601324l-0.459411,-1.202649l-2.45019,0.300662l0.306274,-1.95431l0,-2.705964l-1.225056,-0.300662l0.459411,-0.901991l0.612508,-1.352982l-1.99074,-1.503315l-1.837642,-1.05232l-0.459371,-1.653644c0,0 0.918782,-2.254973 1.071919,-2.856297c0.153137,-0.601328 0.612547,-0.901991 0.612547,-0.901991l-1.378232,-1.803977l1.071958,-1.352982l-0.765684,-1.503315l-1.531329,-1.653644l-1.225095,-3.457621l1.071958,-0.901991l2.143877,-1.653644l3.062698,-4.660274l0.293207,-3.478176l-1.962206,-4.166265l-2.273951,-2.338608l-0.86628,-0.7441l0,-3.507914l-2.382221,-6.27172l-0.21654,-1.381905l-4.114781,-2.976413l-2.057371,0.212603l-0.6497,2.126005l-0.135269,1.234234l-0.948378,4.154477l-6.125435,0l-1.531329,1.803977l-1.531369,-1.352986l-2.45015,0.300666l-2.143916,-1.202653l-3.215835,-0.450995l-2.756424,-2.705964l-4.44093,-2.254973l-4.594027,-0.150333l-4.44093,-1.05232l-1.990779,-1.803977l-2.756424,-0.450991l-2.45015,-2.856297l-2.297053,0.450991l-4.44089,3.607954l-2.603327,0.150333l-4.900301,0.300662l-2.756464,4.209279l-4.900301,1.653648l-3.229334,1.076467l-0.272545,1.692033l-1.918638,0.19318l-2.115422,0.627837l-0.393567,1.014197l0.59035,4.346561l2.459793,-0.048295l1.377484,3.090888l1.475876,1.88351l-0.885525,4.539745l7.035008,9.707319l-6.838224,5.747119l-0.295175,2.801117l2.115422,3.428953l2.115422,4.15338l5.33775,-1.762776l5.977297,3.308216l15.644282,12.266964l2.213814,7.244268l2.951751,1.738624l13.086098,-1.545444l1.771051,0.579541l-0.934721,1.786919l-4.132452,1.159083l0.442763,3.815314l1.475876,3.090888l11.265851,3.622134l4.624411,1.835215l1.273897,2.826412z" id="path2261"><title>Monagas</title></path>
   <path  class="guayana" stroke="#000000" fill="#fffecc" fill-rule="evenodd" stroke-width="2" stroke-linecap="round" stroke-linejoin="round" stroke-miterlimit="4" id="path6441" d="m454.951347,416.925969l0.655958,-4.367772l-0.97455,-8.078846l-1.08282,-3.933116l-3.898162,-0.85038l-3.248501,0.318902l-6.713542,-2.126028l-3.789891,-4.570921l-5.414181,-8.078807l-4.006432,-7.228427l-0.86628,-5.527627l-3.140191,-3.614214l-0.21658,-2.232316l1.515941,-2.232278l4.981021,0.106288l2.057371,-1.488224l-0.541391,-3.082697l-2.382221,-1.7008l-0.6497,-1.7008l2.382221,-1.169283l0.32485,-1.807126l-1.84083,-1.7008l-2.057371,-1.913395l-2.382221,-2.657507l0.21658,-2.338608l1.9491,-1.381905l-1.08286,-2.232309l-5.414142,-0.850404l-3.789891,0.106299l-3.031921,0.956703l-1.84083,2.338612l-2.815341,1.488204l-1.732521,-1.488204l-1.9491,-2.65751l-0.32485,-2.76381l0.75797,-4.039415l1.2994,-3.933112l0.97455,-3.401611l-0.6497,-3.295315l-3.031921,-1.063003l-4.764442,0.425202l-3.031921,1.063003l-1.9491,3.720513l-4.547862,8.078831l-2.49053,3.401611l-3.248461,1.063003l-2.598801,-0.106299l-2.707075,1.275605l-2.598789,1.275602l-2.598793,-0.106299l-1.082828,-2.126005l-0.433132,-5.102418l-0.6497,-1.169306l-2.165657,-0.425202l-2.815357,1.913406l-4.872732,5.208721l-3.898185,2.232305l-3.681621,0.744104l-5.0893,0.425202l-5.95556,0.106299l-2.598793,0.956703l-3.031921,1.063003l-2.273943,0.850404l-1.19111,-2.338608l-3.573339,-0.106299l-3.681621,-0.212599l-0.649696,-3.295315l2.273943,-5.102414l1.082828,-4.677216l-1.51596,-5.633923l-3.465053,-1.488204l-3.465057,-1.063003l-3.031921,0.956703l-1.407678,-0.956703l-1.082828,-1.488204l-0.996606,-1.08715l-1.169055,2.150153l1.51596,3.401611l1.51596,0.637805l0.108286,2.338608l0,1.275605l-2.707075,0.956703l-0.32485,1.275602l-2.923639,2.338608l-3.573335,5.52762l-1.082832,2.976413l-0.108282,2.976409l-0.216564,7.65361l-1.407678,2.338604l-4.981018,2.976409l-3.465053,2.763794l-0.866264,1.807126l0.541414,3.295311l-0.324846,5.421301l0.86626,2.126028l1.515964,-0.531517l0.757978,-1.381897l-0.433132,2.976409l-1.51596,2.763794l-0.216564,2.976409l-0.433132,3.401638l0.433132,4.145692l-0.974546,5.315013l-1.407678,3.189023l0,3.826828l2.490507,4.783496l1.732529,4.358306l-1.191114,4.677247l0.216564,2.976409l1.407678,2.763794l1.840811,2.12599l3.248489,2.551219l1.299396,1.594512l1.732529,0.637805l-3.465057,0.956707l0.108282,2.551219l1.732529,3.720501l2.057375,5.527627l0.974546,1.275609l4.223035,-0.212614l1.840811,0.956707l1.51596,3.188985l-0.108282,4.358345l3.031925,3.720501l1.299392,1.381897l2.057379,0l1.624243,3.507926l-6.388692,6.803237l-0.108286,1.913375l-2.598789,0.318902l-8.662635,7.334754l-11.802842,10.417412l-0.216568,1.807126l1.840811,-0.212614l3.573339,-0.318902l0.757978,-0.637805l1.624246,1.594512l5.738996,0.42519l0.649696,1.488224l0.433132,3.933116l0.974546,1.062995l2.707075,-0.744093l4.76445,4.145692l3.031921,2.976409l6.063846,5.208725l2.815357,2.763833l1.082828,1.488185l-1.732525,2.763794l0,3.082735l1.840807,3.826789l0.32485,1.169321l1.840811,0.637805l0.108282,3.295311l-0.324846,2.444892l0.649696,1.488224l2.057375,2.338604l1.299396,5.421301l2.273943,6.378047l2.057375,3.188985l0.757982,7.441041l0.649696,2.976409l2.382225,1.913414l-0.108282,3.933116l1.19111,2.232316l2.490511,2.12599l3.465053,2.657507l21.006891,18.496258l3.140207,0.106327l2.165657,-0.850419l2.923639,1.594512l2.923647,-0.531517l2.165641,-1.913414l3.573351,-0.42519l2.057371,-2.551219l3.356771,-3.614214l7.254933,-3.507887l6.713542,-0.212614l3.465081,1.594512l1.62425,2.870121l0.32485,4.570921l-2.38226,2.976409l-1.191091,1.913375l0.10827,1.488224l2.16568,1.381897l3.898162,-1.488185l1.51598,-4.358345l1.407671,-3.507887l3.140191,-4.14573l2.382221,0.106288l1.9491,0.744131l2.382221,-0.744131l1.2994,-7.866193l1.51598,-1.913414l3.248461,-0.956707l2.49053,-0.106288l3.573351,-3.082735l2.598761,-0.637805l3.356771,-3.507887l2.598801,0.42519l1.732521,1.7008l1.62425,0.212614l5.847262,-4.039442l2.273951,-3.933077l7.038392,-4.677247l3.031921,-0.531478l1.84083,0.531478l0.43312,2.232316l1.62425,-0.318902l9.312343,-7.015813l1.624211,-4.252018l0.21658,-9.141841l2.057371,-3.933116l3.898201,-1.488185l4.981021,-0.744131l4.006471,0.318902l5.630682,-3.826789l4.006471,-3.189023l6.713542,-0.637805l2.16568,-0.956707l0.32485,-3.082697l1.515941,-1.381897l0,-2.870121l-0.43312,-1.275609l0,-1.807087l-1.732521,-1.594512l-7.471513,-0.212614l-5.305872,-0.212614l-6.821852,0.744131l-4.656132,-0.637805l-2.38226,-1.488224l-4.656132,-0.42519l-1.62425,-1.381897l0,-2.444931l2.165641,-3.507887l0.6497,-4.252018l-1.62425,-6.484334l-4.114741,-6.059106l-2.598801,-4.039442l-2.490491,-2.55118l-1.51598,-2.338604l0.43316,-8.397748l-0.97455,-3.189023l0.32485,-4.996111l2.057371,-2.657507l-0.10827,-2.870121l-1.9491,-2.976409l-3.681621,-3.826789l-9.095763,-4.464633l-5.955572,-7.015813l-3.356771,-3.720501l-1.9491,-4.039442l-0.75797,-1.7008l-4.006471,-2.444892l-0.54143,-3.507926l1.19113,-1.807087l2.490491,-0.637805l5.083034,3.411065z"><title>Amazonas</title></path>
   <path  class="llanos" stroke="#000000" fill="#fffecc" fill-rule="evenodd" stroke-width="2" stroke-linecap="round" stroke-linejoin="round" stroke-miterlimit="4" d="m400.224498,133.962101l-0.612547,-0.150333l-1.99074,-0.901987l-2.297053,-0.901991l-3.368972,0.300666l-2.909561,0.751654l-3.981519,0l-2.45015,-1.202649l-2.756424,0.150329l-2.909581,0.450995l-2.450166,-0.601324l-3.828378,-0.751658l-1.071946,-1.05232l-1.225083,-1.503315l-2.143892,0l-2.450162,0.901991l-4.440922,2.705964l-3.785314,-0.191554l-0.10648,4.742198l0.866264,1.700807l-0.6497,2.126005l-1.19111,2.65751l-1.51596,1.169302l1.19111,1.381905l3.140207,3.401615l-0.32485,1.913406l-1.19111,3.295311l0.86626,2.232309l0.866264,0.106299l-1.840811,4.996115l-1.407678,0.637805l0,1.381905l-1.19111,1.275602l-2.382225,0l-3.573339,-1.913406l-2.165657,-0.637801l-2.165661,-1.169302l-2.273943,-0.637805l-3.573335,-1.488204l-1.51596,-2.338608l1.840811,-2.232309l2.707071,0l2.057379,-2.019706l0.541414,-1.807107l0.433132,-1.700807l-1.624246,-2.126005l-2.707071,-0.531501l-0.108286,-1.488208l-2.598789,-1.275602l-2.598793,-2.01971l-3.248485,-2.126005l-2.165661,-3.507914l-5.0893,-0.212599l-4.872732,-1.169306l-2.598789,-1.594504l-3.140207,0.212599l-2.200444,0.911259l-0.073499,2.490355l-1.949093,0.106299l-1.51596,1.169302l-2.382225,0.744104l-1.732529,1.807107l-1.407678,-0.212603l-1.624243,-2.232305l-2.382225,-2.01971l-1.407678,-0.531501l-1.577754,2.523605l4.176543,5.767824l0.97455,2.976409l-3.031925,2.551211l-2.165657,1.275605l-4.006471,1.063003l-0.866264,2.870109l-0.757978,2.232309l1.51596,3.189012l0.757982,2.657507l-0.866264,2.65751l1.51596,1.807107l1.51596,3.401611l0.108282,4.252014l0.757982,4.996118l-2.923639,3.720513l-2.273943,1.913406l-1.624243,3.189012l-1.949097,4.464613l0.433132,3.189012l0.541418,5.315021l-1.45948,4.110139l0.918062,1.098579l-0.108282,3.720513l2.707075,0.318898l3.465053,1.275605l4.76445,5.208717l2.815357,2.65751l2.057375,0.212599l3.031925,1.913406l0,3.720513l1.732525,3.082712l0.97847,2.975574l1.836887,2.126844l3.356771,1.488204l5.738996,0.744104l2.598793,2.338608l1.840811,0.212599l2.057375,2.551211l5.738996,0.637801l3.573339,-0.425202l16.892137,4.996118l2.382225,-1.700807l-0.108282,-2.65751l4.547885,-0.425198l1.840807,-1.91341l2.010824,1.678213l3.403326,2.680105l2.382225,-0.106299l1.562516,-0.067791l2.791885,3.898788l2.359142,0.846219l3.140203,-1.063006l2.707075,-3.189012l3.681605,1.169306l4.114741,0.425202l4.872751,-0.850404l3.031921,-3.082712l3.248501,-4.145711l3.681621,-1.594508l5.630682,-1.381905l5.305872,2.338608l2.16568,0.106299l2.598761,-0.7441l0.074856,-0.054809l-1.391456,0.136598l-3.061242,-1.502589l-1.461038,0.068297l-1.043621,-2.527087l1.461078,-3.688178l4.035241,-5.054169l0.347874,-2.322188l4.661406,-4.849274l2.574242,-3.756475l1.808912,-1.63919l3.044869,-9.496285l-0.196783,-2.632084l-0.885525,-2.801121l1.352886,-3.090888l2.435195,-0.555394l2.804164,0.09659l1.992432,-0.338066l3.492906,0.627837l1.451278,1.159083l3.000947,0.19318l3.492906,-7.365006l-0.393567,-1.062493l-9.716182,-5.964447l0.086112,-1.219452l-0.910123,-2.728674l-1.106907,-1.654108l-5.473059,-1.690325l-2.312205,-0.048295l-4.378431,-4.008495l-1.623463,-2.849412l-1.574267,-2.07669l0.098392,-1.9801l2.656576,-0.531246l2.656576,-2.414756l-0.491959,-1.642034l-2.01703,-1.835215l-3.296122,-0.19318l-6.641441,-5.602234l-1.131505,2.028395l-7.920533,0.482951l-0.885525,-1.110788l-0.295175,-2.607936l-2.361401,-0.676132l1.082309,-5.312463l-0.147588,-2.366465l-1.721855,-3.139183l0.343072,-3.07502z" id="path8255"><title>Guárico</title></path>
   <path  class="zuliana" stroke="#000000" fill="#fffecc" fill-rule="evenodd" stroke-width="2" stroke-linecap="round" stroke-linejoin="round" stroke-miterlimit="4" d="m120.904749,175.827304l-0.216568,-1.807107l-2.598789,1.381905l-5.197582,1.063003l-4.76445,1.488204l-4.547881,-0.106299l-3.356775,-0.425202l-3.031921,-3.189012l0.649696,-2.870109l-0.974546,-2.338608l-2.490507,-0.531501l2.382225,-2.126009l2.057379,-0.637801l-0.108286,-1.594504l-1.51596,-2.338608l-2.923639,-1.381905l-2.490507,-2.551211l-2.923639,-2.019706l-1.732529,0.956703l-0.757982,-2.126009l0,-4.889815l-0.324846,-1.807107l-3.573339,-2.338608l-3.465053,-5.52762l1.840811,-3.189012l5.847278,-8.185126l0.32485,-2.76381l4.872732,-2.870109l2.815357,-5.102418l2.273943,-4.889819l5.089296,-3.50791l2.057379,-1.169306l0.433132,-4.252014l1.299392,-0.8504l0.216568,-2.551211l0.757978,-1.275605l0,-3.933112l-4.006467,-4.039415l-1.732529,-3.933112l-0.433132,-3.295311l-1.51596,-2.551211l-2.598789,-0.637801l-2.382225,-0.425202l-2.490507,-3.826812l2.707071,2.976409l3.465053,0.744104l2.815357,-0.106299l2.382225,1.488204l1.515964,-0.850404l-0.216568,-1.275605l-5.197582,-2.444908l-4.656167,-4.677216l-3.140203,-4.889819l-2.057379,-5.421316l-1.19111,-6.590622l1.949093,-3.826812l0.974546,-1.381905l3.898185,-1.488208l2.707075,-0.637801l4.439599,-0.637801l3.356771,-0.637805l4.114753,-0.637801l5.197582,-1.169306l4.981014,-3.295311l0.32485,-2.232305l-1.949093,-1.275605l-4.006467,1.913406l-1.840811,1.275605l-1.624246,0.850404l-4.114749,0.531501l-4.981018,1.381905l-2.057375,-0.318902l-2.598793,1.169302l-1.299392,0.850404l-3.031925,0.425202l-8.229503,3.933116l-8.121221,12.756043l-1.949093,4.570917l-2.598793,3.61421l-1.299392,2.444911l-8.662639,1.381905l-1.949093,2.019706l-1.840807,4.252014l-4.006471,4.464617l-3.248489,3.50791l-1.299392,4.358314l-0.216568,1.700807l-4.439599,5.208717l-2.165661,4.358318l-2.273943,4.145711l-0.974546,7.122128l-0.324846,6.590622l-0.108286,2.126005l-1.19111,1.488208l-1.624243,3.933112l-0.433132,3.933112l0.974546,2.65751l-0.108286,2.126009l-2.273939,2.444908l-2.057379,3.720513l-1.407678,3.614214l-0.649696,2.551207l-4.547885,3.295311l-2.273939,3.082712l-2.382225,3.826812l-0.216568,2.76381l-3.356771,3.720513l-1.732529,1.594504l1.082832,2.126009l1.19111,-0.212603l1.191114,-1.381905l6.60526,-0.425202l7.579806,-5.421316l2.490507,0.425202l0.974546,4.145715l0.649696,3.189008l-0.324846,0.744104l1.949093,1.063003l1.732525,-0.7441l2.707075,-1.063006l2.598789,0.956703l2.598793,9.354436l1.51596,5.846518l1.624246,7.759928l0.974546,1.807107l10.665276,12.570891l3.952919,-2.791261l0.740657,-2.58523l0.233889,-0.816381l3.898189,-1.063003l2.273939,-1.063003l2.057379,0.318898l1.19111,-0.956703l2.165661,0l1.840811,-1.594504l0.649696,-1.169306l2.165657,-1.275602l1.082832,2.126005l0.649696,1.488204l2.273943,-1.488204l2.598789,-0.106299l2.707075,-2.232309l1.624243,1.807107l2.165661,0.637801l1.732529,-0.425202l0.974546,-3.720513l5.089296,-3.61421l3.573339,-3.082712l4.439599,-2.976409l3.031925,-2.870109l3.356771,-2.65751l1.840811,-1.488204l0.649696,-1.169306l-1.407678,-2.126005zm10.658282,-12.099496l2.119106,0.725354l2.815357,0.637805l1.840811,2.444908l1.51596,3.401611l0.108282,2.126009l-2.707075,1.275605l-3.356771,1.381901l-2.057375,0.531505l-2.057375,-2.76381l-2.273943,-1.169306l-3.062784,-2.095711l1.655106,-2.368903l1.407678,-2.232309l3.681621,-1.169306l0.371401,-0.725354zm14.551863,-55.043751l1.644023,2.937823l0.32485,2.870109l2.382225,1.275605l0.649696,0.744104l-1.19111,1.275602l0.108282,2.232309l-1.624243,1.594508l-2.382225,1.807107l-3.681621,1.700803l-2.490507,2.126009l0,1.700803l6.172128,4.996118l2.165657,1.063003l1.889326,0.326606l1.467446,2.543503l0.974546,3.189012l-1.624243,2.01971l-2.273943,0.106299l-1.407678,2.126005l-1.407678,3.189012l-2.598789,2.232309l-5.41415,-0.318902l-5.050584,-0.65295l0.935835,-5.406171l-1.949093,-2.76381l-0.433132,-3.50791l-3.465053,-4.889819l-3.140207,-0.956703l-0.32485,-1.700803l-1.840811,-5.208717l-4.547881,-5.208721l-3.248489,-4.783516l-2.273943,-3.614214l-0.324846,-2.232305l1.407675,-2.551211l-4.76445,-4.039411l-0.108282,-1.700807l1.732529,-1.169306l-0.866264,-1.594504l0.216568,-2.019706l-0.97455,-3.189012l-1.19111,-1.488204l1.19111,-1.063006l4.981018,0l0,-0.7441l0.433132,-1.913406l1.299396,-1.913406l-1.515964,-0.637805l-0.86626,-1.488204l2.707071,-0.956703l1.624246,1.275605l-0.108286,3.082708l2.057379,-0.212599l0.324846,-0.531501l-0.433128,-1.381905l0.815781,-2.344133l4.295629,4.426394l1.669762,0.478098l0.278295,1.57089l2.991655,1.91239l1.948058,2.868583l-0.695732,2.527087l0.974027,3.551577l2.295923,3.688182l4.730996,3.619878l2.087203,0.819595l5.44279,0.306125z" id="2"><title>Zulia</title></path>
   <path  class="andina" stroke="#000000" fill="#fffecc" fill-rule="evenodd" stroke-width="2" stroke-linecap="round" stroke-linejoin="round" stroke-miterlimit="4" d="m140.018646,172.995193l0.866264,1.913406l2.923639,0.956703l3.356771,1.913406l2.707075,3.082712l2.490507,1.275602l2.165661,-1.913406l1.624243,-0.7441l1.732529,1.488204l0.216564,1.169302m-18.045213,-9.091749l0,0l-2.908707,1.207378l-3.345318,1.400558l-2.066226,0.458804l-2.115422,-2.728674l-2.287607,-1.279821l-2.85336,-1.931805l-3.788081,3.984347l0.196783,1.593739l1.402082,2.124985l-0.71334,1.303968l-5.214761,4.05679l-3.099339,2.801117l-4.378431,3.042592l-3.246927,2.897707l-5.362348,3.646281l-1.057711,3.791171l-1.697257,0.458804l-2.066226,-0.627837l-1.795649,-1.714477l-2.6598,2.291654l2.566225,1.554836l1.51596,3.61421l-0.32485,2.444911l-1.407678,2.976409l0.216568,3.614214l-2.382225,1.807107l-1.407678,2.126005l-1.949093,2.019706l0.541414,2.232309l2.598789,0.425202l1.840811,-0.212599l6.496978,5.633919l6.063842,-0.106303l2.490511,2.551211l0.757978,2.870109l0,4.145715l-0.757978,1.913406l3.129329,2.681275l3.26235,-2.063585l3.911071,-3.284068l6.76443,-5.650529l3.394514,-2.656232l2.804164,-3.284068l1.377484,-2.656232l1.377484,-2.318166l-0.787134,-4.877807l-1.574267,-3.187478l2.804164,-2.414756l0.295175,-3.235773l1.721855,-1.88351l1.42668,-2.028395l-1.033113,-1.545444l1.967834,-1.835215l3.000947,-1.738624l0.393567,-1.9801l5.559132,-3.428953l0.344371,1.062493l1.328288,-0.338066l1.967834,-2.994297l5.313153,-1.593739l-0.59035,-1.9801l2.078525,-4.068868" id="path9246"><title>Mérida</title></path>
   <path  stroke="#000000" fill="#fffecc" fill-rule="evenodd" stroke-width="2" stroke-linecap="round" stroke-linejoin="round" stroke-miterlimit="4" d="m657.714197,373.431385l8.292336,-0.3949l2.382221,-2.232316l5.089292,0l1.2994,-2.12599l5.414142,0.318902l0.75801,4.464594l5.522412,5.527627l0.21658,2.657507l-1.9491,1.807126l-0.54143,11.905635l-1.62425,0.637805l-0.541391,2.444892l-1.19113,2.338604l-1.62425,1.381936l-1.299361,0.744093l0.10827,4.677208l1.407671,0.956707l11.911143,-0.106288l1.191091,2.232278l7.471513,0.106327l1.9491,1.807087l-0.21654,11.055255l0.75797,1.381897l4.114741,0.212614l-0.10827,5.846491l1.62425,1.913414l0.32485,9.460743l-4.114781,0.212576l-1.08282,6.271759l-3.789891,0.106288l-1.9491,2.12599l-3.140191,0.956707l-2.598801,2.657507l0.866241,3.189023l4.439631,0.212614l-1.9491,6.165394l1.407671,2.126028l-1.9491,2.444892l-1.08282,4.039404l-1.515941,2.019741l-2.49053,3.933116l0.10827,5.527589l-0.10827,6.27172l-1.732521,2.444931l-0.43312,2.870121l0.21654,2.976409l1.62425,2.657507l0.32485,4.677208c0,0 0.54143,1.594512 0.6497,2.019702c0.10827,0.42519 2.16568,2.444892 2.16568,2.444892l2.382221,2.126028l-0.86628,2.870121l-2.707071,0.531478l2.815341,3.401599l4.547901,3.401638l2.815341,0.42519l-0.21654,22.110433l4.006471,1.381897l1.624211,3.507926l4.656171,3.826828l4.764481,1.169283l9.095763,8.397748l1.840791,1.488185l7.363242,0.212614l2.707071,2.444892l4.439592,0.212614l0.21658,4.039404l5.847262,2.657507l4.439631,1.381936l0.21654,1.594473l2.382221,1.700838l2.273951,0.85038l1.19113,0.744093l1.2994,-0.42519l0.43312,-2.551219l0.10827,-14.456854l2.057371,-3.188985l2.81538,-1.488224l-0.54143,-1.169283l3.898201,-3.72054l-0.54143,-1.381897l4.006471,-5.527627l-0.54143,-13.925337l2.16568,-2.12599l0.43312,-3.295273l3.031921,-2.551219l3.356771,-0.637805l2.598801,-2.019702l0,-1.381897l0,-6.059144l-1.9491,-1.275609l-0.10827,-2.976409l2.382221,-1.807087l0,-8.822939l3.789891,-2.870121l1.407671,-2.12599l-0.10827,-5.740242l-2.707071,-1.7008l-0.10827,-8.078807l-0.43316,-1.594512l-3.573312,-1.062995l-0.6497,-4.889823l2.707071,-2.870121l-0.10827,-6.69691l-2.16568,-2.870121l-0.43312,-6.803237l-2.273951,-2.870082l-0.866241,-3.189023l-1.2994,-1.488185l-0.32485,-7.122139l-1.9491,-2.232316l-0.6497,-4.464594l-3.031921,-2.870121l-1.407671,-2.338604l1.515941,-1.913414l1.19113,-2.338604l-0.21658,-16.26398l-6.605272,-4.464594l-6.930083,-7.97252l-4.439592,-2.763833l-1.08286,-0.637805l0.10831,-6.803198l-1.9491,-2.126028l-0.6497,-2.870082l1.840791,-2.763833l1.08286,-4.570921l-0.32485,-4.145692l-2.057371,-1.7008l-1.2994,-3.082735l1.191091,-2.232278l6.172152,-0.425229l4.656132,-5.315013l0.54143,-17.752154l1.08282,-2.976409l1.40771,-1.913406l-0.21658,-18.602565l-2.49053,-2.870109l0.21658,-14.988352l2.382221,-2.019706l-0.32485,-2.76381l2.707071,-2.01971l-0.21654,-2.870109l2.490491,-1.169302l0.21658,-2.870109l-0.43316,-17.539562l-2.273911,-1.488204l0.10827,-5.846522l-2.707071,-4.783516l-13.968514,-14.137948l-8.987493,-7.228427l-7.796363,-10.630034l-7.579783,-6.590626l-9.962043,-4.464613l-3.789891,-3.826812l-8.229522,-0.212603l-2.382221,2.232309l-3.766632,2.92284l0.842981,1.435474l0.6497,1.594508l-1.732521,2.338608c0,0 -4.656171,1.169302 -5.089292,1.381905c-0.43312,0.212599 -2.815341,2.338608 -2.815341,2.338608l-1.62425,5.315017l-0.32485,2.126009l-4.764442,-0.106303l-2.598801,2.01971l-3.140231,2.76381l-2.543347,1.967852l-1.463124,2.390462l-3.789891,1.169306l-4.006471,-0.531505l-3.140191,0.212603l-1.84083,2.76381l0.10831,3.50791l-0.97455,3.933116l-3.356771,2.019706l-3.140231,0.850404l-0.541391,1.700807l0.97455,2.976409l2.382221,1.488204l3.356771,3.295311l0.866241,1.807107l-1.840791,2.870109l-1.08282,1.063003l2.815341,3.401615l3.248501,1.063003l3.140191,-2.126009l4.439592,0.850404l3.681621,2.76381l2.382221,1.488204l-3.681621,5.102418l-2.707071,2.76381l-2.707071,0.637805l-2.382221,2.338608l-3.031921,2.551207l-5.305872,0.106299l-3.140191,4.039415l-3.031921,-0.850404l-3.356771,-0.956703l-1.51598,0.318902l-1.624211,-1.169306l-2.16568,1.063003l0.10827,1.807107l-2.923611,0.850404l-4.006471,0.212603l-2.598801,-0.637805l-2.490491,0.318902l-2.273951,-2.232309l-0.43312,0.425202l0.43312,2.338608l1.9491,2.338608l1.08282,3.189012l-0.86628,2.976409l2.16568,3.933116l0.32485,3.189012l-0.54143,2.551207l0.54143,3.826812l1.191091,3.295311l-2.815341,4.145715c0,0 -2.815341,1.700807 -3.248501,1.700807c-0.43312,0 -1.9491,1.488204 -1.9491,1.488204l-0.974511,2.870109l-3.248501,1.275605l-1.84083,2.019706l-0.866241,0.318902l39.46043,43.340233z" id="path2298"/>
   <path  class="capital" stroke="#000000" fill="#fffecc" fill-rule="evenodd" stroke-width="2" stroke-linecap="round" stroke-linejoin="round" stroke-miterlimit="4" id="path16123" d="m329.375608,108.830824l0.918809,2.254973l3.215839,0.601324l4.900328,-0.601324l4.287785,-2.856297l2.450162,-1.653648l-1.071946,-1.352982l-0.918809,-0.901987l0,0l0,0l-5.705881,0.020442l-2.189216,-0.676132l-1.082309,1.690329l-3.271524,1.014197l-0.516556,1.811067l-1.016682,0.650037z"><title>Distrito Capital</title></path>
   <path  class="capital" stroke="#000000" fill="#fffecc" fill-rule="evenodd" stroke-width="2" stroke-linecap="round" stroke-linejoin="round" stroke-miterlimit="4" d="m367.292866,100.364933l1.393148,1.065464l0,1.653648l-0.765684,1.05232l-2.297053,0l-1.837603,0.150329l-3.828382,-0.450995l-3.062698,-0.300662l-8.575586,0.601328l-5.403358,0.209516l-5.622378,0.091146l-2.143877,-0.751658l-1.071958,1.803977l-3.215835,1.05232l-0.612547,1.803977l-1.531329,1.05232l-2.197362,0.868574l-1.407198,0.502219l-2.909561,-1.05232l-1.684505,1.653644l-2.143877,0.601328l-0.459411,-3.156959l-2.113218,-3.868211l2.681017,-0.249968l6.063842,-0.531501l4.223051,-0.850404l4.656171,-2.232305l3.789891,-0.106303l3.140191,-0.425202l5.305872,-0.531501l4.006471,-0.106299l1.9491,-0.425202l10.286893,0l3.565991,0.752222l1.821782,0.125158z" id="path15149"><title>Vargas</title></path>
  </g>
 </g>
</svg>