<svg width="1024" height="768" xmlns="http://www.w3.org/2000/svg" xmlns:xlink="http://www.w3.org/1999/xlink">
 <metadata id="metadata7">image/svg+xml</metadata>
 <defs>
  <pattern patternTransform="matrix(0.323324, 0, 0, 0.394675, 2160.9, 1022.24)" id="pattern14252" xlink:href="#pattern13278"/>
  <pattern id="pattern10356" patternTransform="translate(1904.45, 522.23)" height="56.15433" width="64.6396" patternUnits="userSpaceOnUse">
   <path fill=" none" d="m0.5,55.65433l63.6396,-55.15433l0,0" id="path10354"/>
  </pattern>
  <pattern id="pattern13278" patternTransform="translate(2160.9, 886.471)" height="224.28354" width="280.05217" patternUnits="userSpaceOnUse">
   <rect id="rect11332" width="347.50024" height="9.503201" x="-133.36407" y="170.03984" transform="matrix(0.784776,-0.619779,0.619779,0.784776,0,0) "/>
  </pattern>
  <pattern id="pattern21993" patternTransform="translate(1989.42, 611.434)" height="69.401688" width="90.020491" patternUnits="userSpaceOnUse">
   <rect id="rect21022" width="105" height="7.5" x="-36.86367" y="50.890423" transform="matrix(0.804894,-0.593419,0.593419,0.804894,0,0) "/>
  </pattern>
 </defs>
 <g>
  <title>background</title>
  <rect fill="none" id="canvas_background" height="770" width="1026" y="-1" x="-1"/>
 </g>
 <g>
  <title>Layer 1</title>
  <rect fill="#2c5aa0" fill-rule="nonzero" stroke="#000000" stroke-width="0.7" stroke-miterlimit="4" stroke-dashoffset="0" y="-1248.5549" x="-1014.8082" height="302.64169" width="251.73001" id="rect3906"/>
  <g stroke="null" id="svg_1">
   <g stroke="#000000" transform="matrix(0.491116951951352,-0.00015761852116424256,0.00015720012321884623,0.49242409039016677,230.30133873614386,996.6207524502831) " fill="#ececec" stroke-width="0.7" stroke-miterlimit="4" id="g2232">
    <path stroke="#000000" fill="#ececec" fill-rule="evenodd" stroke-width="0.7" stroke-miterlimit="4" id="path2309" d="m207.474124,-1499.798838l-0.8852,-2.39777l-7.42857,-3.57672l-3.85185,-3.57672l-2.75133,-6.05291l-3.02645,-3.02646l-3.85185,0.27514l-3.02646,-3.30159l0.27513,-3.85185l6.32805,-2.20106l14.03174,-5.50265l-5.22751,-5.50264l-0.55027,-8.5291l-1.92592,-10.73016l-0.55027,-3.57672l4.67725,-2.20106l-0.82539,-2.75132l-5.22752,-5.22752l-0.82539,-9.62962l-6.87831,-3.85186l-7.15344,-7.15344l-9.90476,-7.7037l-0.27513,-10.45503l-3.57672,-4.67724l-2.75133,-7.97884l-4.95238,-13.75661l-6.05291,-12.93122l5.05225,-5.80821l3.375,-15.5l-0.15426,-7.76206l8.78521,-2.29481l6.87831,0.8254l2.47619,4.67724l5.77778,3.02646l7.15344,0.8254l4.95238,-2.20106l3.30159,-3.57672l3.57672,-2.75132l5.77777,0.82539l1.6508,9.07937l3.30158,3.57672l6.32805,-0.55027l8.5291,-6.60317l5.77778,-3.85185l1.725,-2.15548l1.87274,-5.3037l6.60318,-3.57671l6.05291,-3.30159l3.85185,-1.10053l3.02646,3.30159l-3.85186,3.57672l-4.12698,6.8783l1.10053,4.40212l7.97884,3.30159l3.57672,3.30158l1.92592,2.47619l6.05291,2.75133l4.40212,-0.8254l5.22751,-0.55026l7.42857,6.60317l9.07937,0.8254l3.57672,-1.37566l1.33616,-4.26769l10.50986,14.50428l2.4762,7.7037l-7.70371,6.60318l-5.50264,3.30159l-10.1799,2.75132l-2.20106,7.42857l-1.92592,5.77778l3.85185,8.25397l1.92593,6.8783l-2.20106,6.87831l3.85185,4.67725l3.85185,8.80423l0.27513,11.00529l1.92593,12.93122l-7.42857,9.62963l-5.77778,4.95238l-4.12698,8.25397l-4.95239,11.55555l1.10053,8.25397l1.37567,13.75662l-3.75199,10.63029l-5.03141,-2.33084l-7.59375,-7.8125l-9.21875,-0.59374l-8.875,1.25l-10.75,-1.5l-27.125,-0.25"/>
    <path stroke="#000000" fill="#ececec" fill-rule="evenodd" stroke-width="0.7" stroke-miterlimit="4" id="path8218" d="m253.697724,-1751.312418l-12.71727,4.52322l-4.95238,-2.4762l-3.30158,0.27514l0,7.15344l-1.92593,6.05291l0.8254,11.83068l3.85185,6.87831l-0.27513,4.40212l-3.30159,6.05291l-2.20106,7.15344l2.47619,7.7037l0.55027,9.07937l2.75132,2.47619l1.92592,-4.95239l6.60318,-3.57671l6.05291,-3.30159l3.85185,-1.10053l3.02646,3.30159l-3.85186,3.57672l-4.12698,6.8783l1.10053,4.40212l7.97884,3.30159l3.57672,3.30158l1.92592,2.47619l6.05291,2.75133l4.40212,-0.8254l5.22751,-0.55026l7.42857,6.60317l9.07937,0.8254l3.57672,-1.37566l1.11298,-4.53904l4.24754,-6.86029l3.57672,1.37566l6.05291,5.22752l4.12698,5.77777l3.57672,0.55027l4.40212,-4.67725l6.05291,-1.92593l3.85185,-3.02645l4.95238,-0.27513l0.0179,-6.46822l-3.45926,-4.65513l-7.42858,-1.92592l-8.80423,-0.27513l-2.17119,-6.21263l3.00334,-8.40756l-3.85185,-2.4762l-4.12699,6.05291l-7.97883,-1.37566l-6.87831,-0.27513l-4.67725,-4.12698l1.37566,-5.50265l9.62963,-6.60317l8.25397,-2.20106l6.05291,-0.8254l4.06746,-1.676l0.0189,-6.43168l-8.25396,-3.02646l-6.87831,0.8254l-10.45503,-2.20106l-3.02645,-3.30159l0.82539,-7.15344l7.51708,-6.53078l-5.00026,0.88186l-7.42857,1.10052l-12.10582,-1.37566l-9.07936,-0.82539l-8.5291,-0.27514l-8.19279,-9.20046l0.00001,0z"/>
    <path stroke="#000000" fill="#ececec" fill-rule="evenodd" stroke-width="0.7" stroke-miterlimit="4" id="path14168" d="m356.034154,-1748.900968l-12.42936,1.28637l-16.2328,3.02645l-16.50794,1.6508l-6.83221,1.33943l-7.47467,6.6394l-0.82539,7.15344l3.02645,3.30159l10.45503,2.20106l6.87831,-0.8254l8.25396,3.02646l0.22826,6.34979l5.54952,6.85656l4.40212,4.95238l-2.75132,6.32804l-8.80424,4.40211l-3.51897,4.8977l2.14331,6.1076l8.80423,0.27513l7.42858,1.92592l3.56714,4.86964l5.49306,-2.32368l7.97884,-0.55026l6.60317,4.12698l12.38095,3.02646l12.93122,0.55026l5.50265,9.07937l8.25396,5.50264l6.60318,5.22752l6.60317,3.30158l0.27514,3.85186l6.8783,1.37566l4.12699,5.50264l-1.10053,4.40212l-1.37566,4.67725l-5.22752,5.22751l-6.8783,0l-4.67725,5.77778l3.85185,6.05291l9.07936,3.85185l5.77778,1.6508l5.50265,3.02645l5.50264,1.65079l9.07937,4.95238l6.05291,0l3.02645,-3.30158l0,-3.57672l3.57672,-1.6508l4.67725,-12.93121l-2.20106,-0.27513l-2.20105,-5.77778l3.02645,-8.5291l0.8254,-4.95238l-7.97884,-8.80424l-3.02645,-3.57672l3.85185,-3.02645l3.02645,-6.87831l1.6508,-5.50264l-2.20106,-4.40212l0.10858,-12.31726l-3.04106,0.0494l-12.84016,-1.52564l-7.39282,-2.72367l-9.7274,2.33457l-7.39282,-1.94547l-5.44734,-6.22554l-5.83643,-1.94548l-7.39282,-1.94547l-4.28006,-4.66915l0.3891,-5.05825l3.11276,-8.17101l-5.83643,-5.05825l-3.89096,-8.9492l-3.71356,-10.53883l-3.67926,1.20053l-7.39282,-2.72367l-4.28006,4.28005l-5.44734,1.55639l-1.16728,-8.17101l-5.48267,-9.97323l0,0.00003z"/>
   </g>
   <path stroke="#000000" fill="#808080" fill-rule="evenodd" stroke-width="1px" id="path2267" d="m689.509966,403.888696l0.135804,2.032181l1.351377,0.676979l0.945366,-1.490605l-0.676186,-1.896527l-1.75646,0.677972l0.000098,0z"/>
   <path stroke="#000000" fill="#808080" fill-rule="evenodd" stroke-width="1px" id="path2277" d="m403.265152,227.989736l1.890498,-3.794095l-0.136462,-4.199891l2.838387,2.573241l2.297591,1.625045l0.812206,4.606121l-2.430641,4.878123l-3.377233,2.575236l-1.621813,-1.083335l-1.21718,-3.38665l0.944646,-3.793796z"/>
   <g stroke="#000000" transform="matrix(0.491116951951352,-0.00015761852116424256,0.00015720012321884623,0.49242409039016677,230.30133873614386,996.6207524502831) " fill="#ececec" stroke-width="0.7" stroke-miterlimit="4" id="g2221">
    <path stroke="#000000" fill="#ececec" fill-rule="evenodd" stroke-width="0.7" stroke-miterlimit="4" id="path8255" d="m570.461254,-1673.559648l-1.5564,-0.3891l-5.0582,-2.33457l-5.8365,-2.33458l-8.5601,0.7782l-7.3928,1.94547l-10.1165,0l-6.2255,-3.11276l-7.0037,0.38909l-7.39285,1.16729l-6.22554,-1.55638l-9.72739,-1.94548l-2.72367,-2.72367l-3.11277,-3.89096l-5.44734,0l-6.22553,2.33458l-11.28378,7.00372l-9.61797,-0.49579l-0.27055,12.27401l2.20106,4.40212l-1.6508,5.50264l-3.02645,6.87831l-3.85185,3.02645l3.02645,3.57672l7.97884,8.80424l-0.8254,4.95238l-3.02645,8.5291l2.20105,5.77778l2.20106,0.27513l-4.67725,12.93121l-3.57672,1.6508l0,3.57672l-3.02645,3.30158l-6.05291,0l-9.07937,-4.95238l-5.50264,-1.65079l-5.50265,-3.02645l-5.77778,-1.6508l-9.07936,-3.85185l-3.85185,-6.05291l4.67725,-5.77778l6.8783,0l5.22752,-5.22751l1.37566,-4.67725l1.10053,-4.40212l-4.12699,-5.50264l-6.8783,-1.37566l-0.27514,-3.85186l-6.60317,-3.30158l-6.60318,-5.22752l-8.25396,-5.50264l-5.50265,-9.07937l-12.93122,-0.55026l-12.38095,-3.02646l-6.60317,-4.12698l-7.97884,0.55026l-5.59103,2.35857l-0.18675,6.44567l-4.95238,0.27513l-3.85185,3.02645l-6.05291,1.92593l-4.40212,4.67725l-3.57672,-0.55027l-4.12698,-5.77777l-6.05291,-5.22752l-3.57672,-1.37566l-4.00886,6.53173l10.61203,14.92859l2.4762,7.7037l-7.70371,6.60318l-5.50264,3.30159l-10.1799,2.75132l-2.20106,7.42857l-1.92592,5.77778l3.85185,8.25397l1.92593,6.8783l-2.20106,6.87831l3.85185,4.67725l3.85185,8.80423l0.27513,11.00529l1.92593,12.93122l-7.42857,9.62963l-5.77778,4.95238l-4.12698,8.25397l-4.95239,11.55555l1.10053,8.25397l1.37567,13.75662l-3.70834,10.63808l2.33267,2.8434l-0.27513,9.62963l6.87831,0.82539l8.80423,3.30159l12.10582,13.48148l7.15344,6.87831l5.22751,0.55026l7.70371,4.95238l0,9.62963l4.40211,7.97884l2.48616,7.70154l4.66728,5.50481l8.5291,3.85185l14.58201,1.92593l6.60318,6.05291l4.67725,0.55026l5.22751,6.60318l14.58201,1.65079l9.07937,-1.10053l42.92063,12.93122l6.05291,-4.40212l-0.27513,-6.87831l11.55556,-1.10052l4.67724,-4.95239l5.10923,4.34364l8.64739,6.93679l6.05291,-0.27513l3.97014,-0.17546l7.0938,10.09105l5.99426,2.19023l7.97883,-2.75133l6.87831,-8.25397l9.35446,3.02646l10.455,1.10053l12.381,-2.20106l7.7037,-7.97884l8.254,-10.73015l9.3545,-4.12699l14.30679,-3.57672l13.4815,6.05291l5.5027,0.27513l6.6031,-1.92592l0.1902,-0.14186l-3.5355,0.35355l-7.7782,-3.88908l-3.7123,0.17677l-2.6517,-6.54074l3.7124,-9.54594l10.253,-13.08147l0.8839,-6.01041l11.844,-12.55115l6.5408,-9.72271l4.5962,-4.24264l7.7366,-24.57879l-0.5,-6.8125l-2.25,-7.25001l3.4375,-8l6.1875,-1.4375l7.125,0.25l5.0625,-0.875l8.875,1.625l3.6875,3l7.625,0.5l8.875,-19.0625l-1,-2.75l-24.6875,-15.4375l0.2188,-3.15625l-2.3125,-7.0625l-2.8125,-4.28125l-13.9063,-4.37499l-5.875,-0.125l-11.125,-10.375l-4.125,-7.375l-4,-5.375l0.25,-5.125l6.75,-1.375l6.75,-6.25l-1.25,-4.25l-5.125,-4.75l-8.375,-0.5l-16.875,-14.5l-2.875,5.25l-20.125,1.25l-2.24999,-2.875l-0.75,-6.75l-6,-1.75l2.75,-13.75l-0.375,-6.12501l-4.375,-8.125l0.8717,-7.95893z"/>
    <path stroke="#000000" fill="#ececec" fill-rule="evenodd" stroke-width="0.7" stroke-miterlimit="4" id="path2265" d="m348.557174,-1191.847398l-6.60317,-3.02646l-9.3545,-4.67725l-11.28042,-3.02645l-8.25397,0.27513l-14.03175,-0.8254l-8.80423,2.20106l-1.65079,4.95238l-13.20635,4.95238l-10.45503,-4.67725l-13.48148,7.15344l-4.67725,-1.92592l-5.22751,1.65079l-8.25397,1.10053l-6.05291,-3.30159l-8.25397,-0.27513l-9.35449,4.12698l-8.80424,0.27514l-4.95238,3.85185l-5.50264,0.27513l-6.60318,-4.95238l-7.15344,0.27513c0,0 0,0 -3.57672,-2.20106c-3.57672,-2.20105 -12.93121,-0.55026 -12.93121,-0.55026l-13.48149,-3.85185l-10.73015,-1.6508l-9.90477,5.22752l-8.5291,9.90476l2.47619,2.75132l-2.20106,2.75132l-6.8783,-2.75132l-4.12699,-8.5291l-13.20635,4.12698l-3.02645,-1.37566l-0.55026,-5.77777l-9.62963,-9.3545l-3.57672,-4.95238l-3.85186,-4.95238l-2.75132,-1.6508l-5.50264,-6.8783l0,-3.85186l-4.67725,-6.60317l-3.57672,-1.10053l-15.95767,-20.08466l0.27513,-3.30158l-4.95238,-7.15344l-3.57672,-1.10053l-17.8836,-21.18519l-0.55027,-4.67725l-6.60317,-7.15343l-13.48148,-0.27514l-11.55556,6.60318l-15.13227,-10.73016l-6.97876,-0.30888l-7.00372,-10.89468l-7.00372,0l-20.23299,0l-17.12021,0l-7.00372,7.78192l-8.56011,7.78191l-7.78192,-0.77819l-3.89096,-7.00372l-60.69894,-1.55639l-3.89096,-5.44734l-3.11276,-0.77819l-6.22554,5.44734l-9.3383,0l-8.5601,3.11277l-18.6766,0.77819l-6.22553,-3.11277l-12.45107,-14.78564l-1.55638,-3.89096l-3.89096,-10.11649l3.89096,-8.5601l-8.56011,-8.56011l-20.13596,-1.14768l3.16709,-3.81284l6.05291,-0.27514l7.7037,1.10053l7.42857,-2.20105l6.05291,5.22751l9.3545,5.50264l8.5291,0l10.17989,-4.67724c0,0 5.05326,-7.54322 6.71961,-10.21213c2.38933,0.32697 9.78833,1.68303 9.78833,1.68303l6.60318,5.77777l7.97883,2.20106l4.12699,-3.02645l6.05291,2.47619l9.62963,-1.37566l5.22751,-2.4762l9.3545,0.8254l20.08465,3.02646l7.42857,6.32804l10.1799,0.55026l18.70899,7.70371l8.5291,-2.47619l15.40741,3.85185l6.60318,1.10053l6.8783,-5.22752l7.97884,-0.27513l9.3545,-7.97883l4.67724,-3.02646l9.90477,-2.47619l2.75132,-4.12698l7.15344,-17.33334l5.50264,-0.82539l6.05291,0.82539l6.32805,-1.92592l11.83068,-10.73016l7.42858,-3.85185l9.35449,1.10053l6.05291,-5.77778l4.95238,-3.57672l17.33334,-2.75132l13.20635,-9.62963l15.68254,-11.28043l10.17989,-6.8783l17.0582,-0.8254l9.90476,-1.37566l9.90477,3.02645l3.57672,6.05291l5.22751,2.75133l3.85185,0l7.15344,-1.92593l6.87831,7.15344l3.57672,4.40212l16.50793,1.37566l6.32804,-2.47619l11.28043,0.27513l11.00529,-4.12699l5.77778,1.37567l10.73016,1.37566l6.60317,3.30158l5.77778,0l7.7037,-4.12698l3.85185,0.55026l4.95238,-3.85185l14.58202,7.97884l22.01058,-1.10053l9.90476,1.10053l7.97884,-3.85185l9.35449,0l7.15344,-4.95238l6.87831,-0.8254l6.60317,6.60317l6.32805,0.8254l9.07936,1.10053l9.90476,4.12698l6.05291,4.40212l10.45503,7.15344l18.98413,0l12.93121,3.02645l9.62963,1.6508l11.55556,4.12698l11.00529,3.85185l8.25397,-4.12698l0,-5.77778l8.80423,-1.65079l3.57672,-2.20106l1.37566,-3.30159l4.67725,4.67725l2.20106,3.02646l6.87831,4.12698l9.35449,-0.8254l2.20106,6.32805l1.49677,2.94737l-5.62375,2.8304l-9.07937,6.60318l-8.25397,13.75661l-7.97883,9.07937l-3.57672,8.5291l-9.90476,3.85185l-9.90477,1.10053l-8.25396,5.22751l-8.80424,8.80424l-9.62963,-0.55027l-14.03174,3.30159l-5.22752,5.77778l-0.82539,10.17989l-4.67725,8.25397l2.47619,-4.40212l7.7037,0.27513l4.12699,8.80424l-2.20106,13.48148l1.10053,9.07936l-7.42857,7.97884l-7.15344,20.91005l0,11.83069l-5.50265,5.50265l-10.45503,3.02645l-1.92592,8.25397l-10.1799,6.87831l-7.59412,6.83472l-0.93498,0.31872z"/>
   </g>
   <g stroke="#000000" transform="matrix(0.491116951951352,-0.00015761852116424256,0.00015720012321884623,0.49242409039016677,230.30133873614386,996.6207524502831) " fill="#ececec" stroke-width="0.7" stroke-miterlimit="4" id="g2211">
    <path stroke="#000000" fill="#ececec" fill-rule="evenodd" stroke-width="0.7" stroke-miterlimit="4" id="path12182" d="m728.024044,-1712.528188l5.4431,-6.47266l5.7778,-4.67724l4.9524,-5.22752l11.5556,-4.12698l3.8518,-6.05291l5.5027,-5.22751l6.328,0.55026l4.4021,4.67725l6.8783,0.27513l11.2804,-0.27513l12.9313,1.10053l8.5291,-3.02646l10.1799,-4.40211l-2.7514,-1.37566l-6.0529,-3.02646l-8.5291,-2.75132l-7.7037,-0.8254l-3.5767,-3.85185l-6.0529,0.8254l-15.1323,0.82539l-12.3809,2.47619l-6.6032,4.67725l-2.4762,-6.87831l-4.4021,-6.8783l3.8518,-2.75133l7.7037,0.8254l12.6561,1.92593l8.254,-3.85185l7.1534,0.82539l10.1799,3.02646l10.1799,-3.85185l5.7778,-1.10053l15.4074,2.75132l13.7566,1.37566l7.4286,-1.10053l10.1799,-3.57672l19.5344,-0.27513l5.2275,-4.67725l11.2804,-1.10053l17.6085,0l4.9524,2.20106l11.0053,0l9.0793,-3.85185l8.254,-3.57672l12.3809,1.92592l9.3545,0.8254l16.2328,0l13.7567,3.30159l7.9788,0.8254l12.1058,0.55026l4.127,-1.92593l11.8307,-1.10052l9.3545,-2.20106l10.1799,0.27513l-1.1006,3.85185l-12.9312,6.05291l-11.5555,0.8254l-20.9101,1.65079l-10.1799,11.55556l-15.1323,0l-18.4338,-2.20106l-12.6561,-0.55027l-16.5079,2.20106l-11.2805,3.85185l9.3545,2.4762l0.8254,11.28042l-7.7037,0.55026l-7.1534,-0.82539l-3.8519,7.7037l0,11.28042l5.2276,-0.55026l-1.3757,-12.65609l4.4021,-3.57672l7.4286,4.12699l8.8042,-5.50265l1.3757,-6.32804l1.9259,0.27513l9.3545,7.70371l4.6772,5.77777l-2.201,5.77778l1.3756,14.03175l4.676,4.94146l-2.7825,10.99436l-15.5639,0l-3.8909,4.66915l-3.891,-3.50187l-6.2255,0.7782l-5.4474,-3.11277l-8.171,-1.16729l-7.0037,-7.00372l-11.2838,-5.83644l-11.6728,-0.3891l-11.2838,-2.72367l-5.0583,-4.66915l-7.0037,-1.16728l-6.2255,-7.39282l-5.8365,1.16728l-11.2837,9.3383l-6.6147,0.3891l-12.451,0.77819l-7.0038,10.89468l-12.451,4.28006l-7.6428,2.59867l-5.7882,-4.60133l-13.8769,2.20971l-10.3415,4.37522l-9.9437,-0.44194l-5.7894,-3.93328l-10.5624,-1.14905l-3.9333,-8.44108l-6.1546,-6.69136z"/>
    <path stroke="#000000" fill="#ececec" fill-rule="evenodd" stroke-width="0.7" stroke-miterlimit="4" id="path2235" d="m794.149944,-1693.940298l-0.7368,4.81682l-4.6692,0.38909l-5.4473,1.55639l-1.1673,2.72367l0.7782,6.22553l0.7782,5.05824l6.2255,-0.38909l3.5019,8.17101l3.8909,4.66915l-2.3345,12.06197l17.8984,24.90213l-17.8984,15.17474l-0.3891,7.00372l5.4473,8.9492l5.4473,10.89469l13.6184,-4.66915l15.1747,8.5601l13.2293,10.50559l15.5638,12.84016l10.8947,8.17101l5.4473,18.6766l7.782,4.66915l21.4002,-2.72367l11.6729,-1.16729l4.6691,1.55639l-2.7236,4.66915l-6.6147,1.94548l-3.5018,0.77819l1.1673,9.72739l3.5018,8.17101l10.8947,4.28006l17.5093,5.05824l12.062,5.05825l3.5019,7.00372l-5.0583,1.94548l-4.28,-1.94548l-3.891,5.44734l-9.7274,9.3383l-8.5601,-2.72367l-10.5056,-1.94548l-6.6146,-2.33457l-4.6692,-2.72367l-9.3383,4.28005l-5.8364,-3.50186l-7.3928,8.56011l-8.171,0.38909l1.5564,3.89096l-10.8947,5.05825l-4.2801,3.89095l-8.9492,3.11277l-11.2838,2.72367l-7.3928,-3.89096l-13.6183,6.61463l-4.6692,1.16729l-7.3928,9.3383l-5.8364,8.17101l-10.1165,5.05825l-10.5056,1.55638l-14.3966,-12.45107l-10.5056,-7.00372l-8.9492,4.28005l-5.8364,7.39282l-4.6691,3.11277l-4.6692,-3.89096l-7.3928,-0.77819l-10.1165,5.05824l-4.2801,9.7274l4.2801,8.17101l8.171,2.33458l0.7782,5.05824l-6.6146,3.11277l-13.2293,0.38909l-8.171,4.66915l-7.7819,5.44734l-8.9492,1.94548l-7.3928,-0.77819l-10.8947,-6.61463l-7.0037,-7.78191l-22.9567,-6.22554l-15.1747,-6.22553l-6.2256,0.3891l-7.3928,-3.89096l-3.8909,0.77819l-3.1128,-6.22553l4.28,-9.3383l10.1165,-14.00745l0.7782,-5.83644l12.062,-12.45106l6.2255,-9.7274l4.6692,-3.89095l7.7819,-25.29123l-0.3891,-6.61463l-2.3346,-7.39282l3.5019,-7.78192l6.2255,-1.55638l7.0037,0l5.4474,-0.77819l8.5601,1.55638l3.5019,3.11277l7.7819,0.77819l8.9492,-19.45479l-0.7782,-2.33457l-21.0112,-13.61836l-3.8909,-2.33457l0,-7.39282l-5.0583,-7.00373l-14.0074,-4.28005l-5.4474,0l-10.8947,-10.11649l-4.6691,-7.78192l-3.891,-5.05824l0,-5.44734l6.6147,-1.16729l7.3928,-6.22553l-1.1673,-3.89096l-5.4474,-5.05825l-7.7819,-0.38909l-15.9529,-13.22926l-1.5564,-1.55638l-2.7236,5.05824l-4.2801,0.77819l-15.5638,0.7782l-2.72369,-3.11277l-0.7782,-6.61463l-5.8364,-1.94548l2.7236,-13.22925l-0.7782,-6.61463l-3.8909,-7.78192l0.3891,-7.00372l0.7782,-5.05825l8.17099,0.3891l9.3383,-4.28006l5.4473,-8.17101l5.4474,-2.72367l5.4473,-4.28005l1.0423,-2.37992l35.5539,6.85834l7.7037,4.12698l8.254,-3.02645l10.7302,-1.92593l13.2063,2.20106l11.5556,-1.92593l2.7513,-3.30158l1.9259,-9.3545l9.9048,-5.77778l20.4625,-1.47946l6.4784,6.64687l3.891,8.56011l10.5056,1.16728l5.8364,3.89096l10.1165,0.3891l10.1165,-4.28006l14.0074,-2.33457l5.406,4.52148z"/>
    <path stroke="#000000" fill="#ececec" fill-rule="evenodd" stroke-width="0.7" stroke-miterlimit="4" id="path2261" d="m960.451344,-1478.535238l0.2751,0l1.6508,-1.37566l5.5026,-4.67725l7.4286,-6.60317l7.9789,-3.85185l11.8306,-0.27513l3.0265,-2.4762l6.8783,-4.40211l6.8783,-2.20106l0.5503,-3.57672l3.3016,-5.22751l7.4285,-4.12699l5.7778,-4.12698l5.5027,-2.75132l4.6772,-9.62963l0,-5.22752l-3.3016,-5.50264l-1.5741,-8.37297l2.7236,-9.7274l-5.8364,-1.94548l-6.6146,3.50186l-5.4474,-1.55638l-7.0037,-0.77819l-5.0582,1.55638l-1.1673,-3.11276l-6.2256,0.77819l0.7782,-5.05825l0,-7.00372l-3.1127,-0.77819l1.1673,-2.33458l1.5563,-3.50186l-5.0582,-3.89096l-4.6692,-2.72367l-1.1672,-4.28005c0,0 2.3345,-5.83644 2.7236,-7.39282c0.3891,-1.55639 1.5564,-2.33458 1.5564,-2.33458l-3.5019,-4.66915l2.7237,-3.50186l-1.9455,-3.89096l-3.8909,-4.28005l-3.1128,-8.9492l2.7237,-2.33458l5.4473,-4.28005l7.7819,-12.06197l0.745,-9.0024l-4.9857,-10.78335l-5.7778,-6.05291l-2.2011,-1.92592l0,-9.07937l-6.0529,-16.2328l-0.5502,-3.57672l-10.4551,-7.70371l-5.2275,0.55027l-1.6508,5.50264l-0.3437,3.19451l-2.4097,10.75284l-15.5639,0l-3.8909,4.66915l-3.891,-3.50187l-6.2255,0.7782l-5.4474,-3.11277l-8.171,-1.16729l-7.0037,-7.00372l-11.2838,-5.83644l-11.6728,-0.3891l-11.2838,-2.72367l-5.0583,-4.66915l-7.0037,-1.16728l-6.2255,-7.39282l-5.8365,1.16728l-11.2837,9.3383l-6.6147,0.3891l-12.451,0.77819l-7.0038,10.89468l-12.451,4.28006l-8.2053,2.78617l-0.6925,4.37941l-4.875,0.5l-5.375,1.625l-1,2.625l1.5,11.25l6.25,-0.125l3.5,8l3.75,4.875l-2.25,11.75001l17.875,25.125l-17.375,14.875l-0.75,7.25l5.375,8.875l5.375,10.75l13.5625,-4.56251l15.1875,8.5625l39.75,31.75001l5.625,18.75l7.5,4.5l33.25,-4l4.5,1.5l-2.375,4.625l-10.5,3l1.125,9.875l3.75,8l28.625,9.375l11.75,4.75l3.2368,7.31547z"/>
   </g>
   <g stroke="#000000" transform="matrix(0.491116951951352,-0.00015761852116424256,0.00015720012321884623,0.49242409039016677,230.30133873614386,996.6207524502831) " fill="#ececec" stroke-width="0.7" stroke-miterlimit="4" id="g2216">
    <path stroke="#000000" fill="#ececec" fill-rule="evenodd" stroke-width="0.7" stroke-miterlimit="4" id="path15225" d="m350.495834,-1190.038208l1.53076,-0.54564l3.68402,-2.91435l7.97884,-4.40211l18.43386,-18.15874l8.25397,-7.97883l0.8254,-7.97884l1.65079,-9.62963l8.5291,-13.75661l2.20106,-10.45503l0.27513,-23.38624l-6.60317,-8.5291l6.05291,-4.40212l6.60317,-3.30158l1.6508,-3.85186l8.80423,-2.47619l5.50264,-5.77777l6.32805,-4.67725l11.55555,-1.92593l7.70371,-2.47619l9.62963,-5.77778l7.42857,-14.30688l7.7037,-7.97883l5.50265,-8.5291l6.8783,-6.05291l5.77778,-3.57672l9.62963,1.65079l7.42857,-2.20106l4.40212,-3.30158l9.62965,0.55026l9.9047,-0.8254l3.3016,3.57672l3.5767,-4.40211l5.7778,-1.6508l5.7778,-4.12698l4.4021,3.02645l4.127,-3.57672l7.1534,-2.75132l2.4762,-9.62963l3.5767,-6.8783l6.32809,-1.92593l11.5555,-1.10053l7.7037,3.02646l7.7037,3.02645l5.2275,1.37566l15.1323,1.10053l17.3333,5.77778l9.9048,4.12698l6.8783,7.42857l7.1535,4.95239l2.7513,7.7037l3.3016,-4.67725l11.2804,-4.12698l9.0794,-5.50265l8.5291,-4.67725l8.5291,-1.92592l10.7301,-1.92593l4.4021,-4.40212l3.0265,-3.57672l-3.8519,-6.32804l-2.4762,-9.07936l2.7514,-6.05291l4.4021,-0.8254l8.5291,1.65079l4.4021,-1.92592l6.0529,-0.27513l1.9259,-5.50265l2.4762,-4.12698l6.3281,2.75132l4.127,6.05291l0,4.40211l4.1269,-1.65079l5.5027,3.57672l6.328,0.27513l4.9524,1.10053l8.254,0.27513l5.7778,-1.92592l4.9523,-5.77778l4.127,-6.87831l5.7778,-8.25396l8.254,-0.8254l13.4814,-3.30159l12.1059,-3.57672l9.9047,1.10053l4.127,-4.40212l6.8783,-2.75132l6.6032,0.55027l5.5026,-4.95238l8.5291,-7.15344l6.0529,-3.85186l8.8043,0.55027l12.3809,3.57672l10.1799,2.47619l9.6297,-1.65079l4.4021,-2.75133l11.0053,-3.85185l3.8518,1.10053l-1.9259,6.87831l-7.4286,6.8783l-9.0793,9.3545l-9.9048,6.32804l-6.6032,3.57672l-6.328,3.57672l-5.2275,-4.95238l2.201,8.5291l-0.8254,11.55556l-1.1005,9.62963l3.8518,3.30158l1.6508,6.32805l-2.4761,9.62963l0.5502,8.80423l-5.5026,6.60317l2.7513,1.92593l0.2751,5.50265l-1.1005,7.15343l3.0265,2.75133l2.7513,3.85185l4.6772,2.75132l4.4021,-2.75132l0,-4.40212l4.6773,-2.20106l3.3016,6.05291l-0.5503,5.50265l-5.7778,6.60317l0,6.32805l-2.201,6.8783l-5.2275,4.95238l-5.2276,-1.37566l-3.8518,-4.67725l-0.2751,6.05291l-4.6773,2.20106l-4.6772,1.92593l-4.9524,-1.92593l-3.8519,2.75133l-1.3756,2.75132l2.7513,3.85185l6.0529,1.92593l2.4762,4.40211l-4.127,5.50265l0.5503,3.30159l6.8783,-1.6508l4.9524,1.10053l5.2275,4.12699l6.328,0.55026l1.3757,4.67725l-5.2275,5.77778l-9.6297,5.50264l-8.8042,-0.8254l-4.127,-5.50264l-9.6296,-2.47619l-8.5291,1.92592l-1.9259,5.50265l-1.926,5.22751l6.0529,-6.32804l7.7038,-2.20106l7.4285,0.8254l3.0265,3.85185l3.0264,3.30159l4.9524,-0.27513l4.6773,0.27513l6.0529,-1.92593l4.9524,-3.57672l4.9523,-4.40211l3.3016,1.10053l3.5767,6.60317l2.4762,4.12698l0.5503,8.80424l2.4762,5.50264l-3.5767,9.07937l-10.4551,15.13227l-6.6031,10.45503l-0.8254,5.50265l3.5767,4.12698l3.8518,9.3545l-1.6508,1.10053l-3.8518,3.30158l0,5.22752l1.6508,-4.67725l3.5767,-2.75132l3.0265,1.92592l3.8518,7.7037l1.1005,-4.12698l-4.4021,-9.07936l-5.2275,-8.5291l-1.3756,-6.32805l8.2539,-15.4074l13.2064,-17.05821l1.1005,-4.95238l-2.4762,-2.47619l-4.127,-6.60317l1.1006,-7.70371l-1.6508,-4.95238l-1.3757,-4.67725l-7.7037,-6.60317l2.7513,-5.22751l8.254,-7.15344l4.4021,-3.57672l4.9524,0.55026l5.5026,-1.10053l0.5503,-4.40211l-5.7778,-8.80424l1.6508,-2.75132l1.1005,-3.02645l-2.201,-2.20106l0,-3.02646l3.3016,-4.12698l6.0529,1.65079l4.9524,4.12699l2.4762,0.55026l1.1005,-2.75132l1.6508,-3.30159l-3.3016,-3.30159l1.1005,-2.47619l-0.2751,-3.57672l-3.8519,-4.40211l-0.8254,-4.95238l1.3757,-3.30159l4.9524,-2.47619l2.201,-4.40212l0.5503,-4.67725l-1.1005,-4.40211l-4.6773,-2.75133l0.2752,-3.02645l7.4285,-4.12698l0.2752,-6.05291l3.3015,-4.95239l-2.4761,-3.85185l-3.5768,0.27513l-4.6772,-1.65079l-4.9524,-4.12698l-5.2275,-2.20106l-1.1005,2.47619l-4.4022,6.05291l-7.4285,1.92593l-8.8043,0.27513l-3.8518,2.47619l-4.6773,0.55026l-4.4021,-2.75132l-1.6508,-4.40212l-0.2751,-5.77777l0.8254,-6.87831l-1.9259,-1.92593l-0.5503,-7.42857l1.1005,-9.07936l9.3545,-6.32805l4.127,0.8254l2.2011,-1.10053l-1.3757,-1.37566l2.4762,-4.67725l11.0053,-6.87831l4.127,-6.8783l8.2539,-5.77778l4.9524,-4.95238l-2.4762,-4.67725l-0.2751,-3.57672l2.7513,-3.30159l9.566,-6.30366l0.6139,5.7534l7.7037,6.87831l12.6561,12.65608l1.9259,0.55027l4.127,-2.4762l8.8043,0.27514l6.6031,1.65079l6.8783,3.85185l7.1535,4.40212l4.6772,6.32804l3.8519,6.60318l1.6508,4.12698l6.8783,3.85185l6.328,-0.55026l4.4021,-3.30159l7.7037,-1.37566l9.3545,-2.20106l4.6773,0.55026l6.328,10.73016l6.3281,12.38096l8.2539,6.05291l12.9313,3.30158l9.3545,2.75133l3.3015,3.02645l2.7514,-0.27513l5.7777,-6.60318l8.8043,-2.75132l7.9788,-1.65079l4.6773,-4.95238l5.5026,-2.47619l8.5291,-4.12699l3.0265,-2.20106l5.5026,5.77778l3.5767,10.1799l5.2275,2.20105l11.0053,-3.57672l7.9789,-4.12698l0.2751,-3.02645l7.4286,1.92592l5.7777,-2.47619l4.4022,-1.92592l42.0254,-0.86395l-3.7276,6.26729l-9.3718,3.13078l-10.6949,-1.67939l-7.4247,0.70711l-5.3033,7.07107l0.7071,9.54594l-2.1213,8.83883l-8.1317,6.01041l-8.8388,2.12132l-1.7678,4.5962l2.8284,7.77817l5.6569,2.82843l8.8388,9.89949l2.1213,4.5962l-3.5355,6.71751l-3.8891,3.53554l7.0711,8.13172l8.8388,3.18198l7.7782,-5.3033l10.6066,2.12132l15.5563,10.96016l-8.4852,12.37437l-7.4247,7.07107l-7.071,1.76776l-13.0815,13.43503l-14.1421,0l-7.7782,11.31371l-16.2635,-5.65685l-3.5355,1.41421l-4.9498,-3.53554l-5.6568,2.82843l1.4142,5.65686l-8.1317,1.41421l-10.6066,0.35355l-6.0104,-2.47487l-6.7175,1.41421l-5.6569,-5.3033l-1.4142,1.41422l1.7678,5.3033l5.3033,7.42462l2.1213,7.77817l-1.7678,7.07107l5.3033,9.8995l0.7071,7.77817l-1.4142,7.42462l1.0607,10.25305l3.5355,8.13173l-6.364,10.6066l-9.5459,4.59619l-4.5962,3.53554l-2.8284,8.13173l-7.7782,2.47487l-4.5962,5.65685l-2.4749,0.70711l100.7627,112.07633l0.1936,5.5975l4.9524,8.254l-11.5556,16.2328l-14.3069,9.6297l-15.1322,6.6031l0,2.4762l-4.4022,4.127l0.2752,7.7037l-4.6773,7.42855l-5.2275,1.1005l-20.6349,2.2011l-8.8042,-3.8519l-8.8043,1.3757l-1.3756,2.7513l2.4762,5.2275l-0.5503,4.6773l-4.6773,1.3756l-9.3545,-1.1005l-12.1058,5.7778l-0.2751,12.1058l-5.2275,5.2275l-17.3334,-0.5503l-8.5291,1.926l-12.3809,10.7301l-7.7037,2.2011l-5.5027,-2.4762l-6.0529,-0.2751l-16.783,10.1799l-33.8413,-12.1059l-7.1534,0l-1.926,3.8519l-8.8042,5.5026l-0.2751,7.1535l-2.4762,2.201l-17.8836,-0.5502l-9.3545,4.1269l-3.3016,11.2805l2.2011,8.8042l5.7777,17.0582l-3.8518,12.6561l-17.0582,7.9788l-7.9789,-4.9524l-13.4814,-13.7566l-14.5821,-13.4815l-7.7037,-10.7301l-6.328,-5.7778l-8.254,-3.8518l-9.0793,0.8254l-6.0529,14.0317l-6.8783,-1.1005l-10.4551,-11.0053l-10.1799,-0.5503l-6.328,3.3016l-7.7037,0l-6.6032,-3.0265l-10.1799,4.6773l-7.7037,5.2275l-5.2275,0.2751l-2.2011,-3.8518l-3.8518,-15.1323l-6.3281,-9.0793l-7.9788,-3.3016l-18.709,-2.7514l-12.6561,2.4762l-18.4338,1.6508l-4.9524,-5.2275l-4.596,-7.5061l1.6026,-7.4714l-1.5,-13.75l-1,-13l-3,-8.25l-9,-2l-9.5,0.5l-16.5,-4.99995l-8,-10.75l-13.5,-19.75l-12,-21.5l-1.75,-13.75l-8,-9l-1.25,-6.75l4,-5.75l13.25,0.5l5,-4l-1.25,-7.75l-7,-4.75l-1.25,-4.5l6,-3.25l0.5,-5l-15.25,-15.49992l0.25,-5.75l5.25,-4l-2.75,-5.75l-4.5,-0.25l-9.25,-1.5l-9.25,-0.25l-7.75,2l-4.5,6.5l-8.5,3.25l-8.75,-8.75l-1,-8.25l2.25,-10.25l5.5,-20l-1.5,-8l-8.49999,-2.5l-12,1.25l-6.75,2.75l-11,20.75l-11.75,18.25l-7.5,2.75l-7.25,-0.5l-13.99997,7.25l-6,-0.75l-3.25,-4l-0.5,-13.25l-2.5,-4.25l-4.75,-1.25l-7.5,4.75l-12.5,13.5l-10.5,5.75l-11.25,2.5l-25.5,1l-20.25,7.75l-3,-6l-18,-0.75l-1.75,-9.25l5.75,-14l2.75,-11.25l-4,-14.5l-17.5,-6.5l-8.25,2.5l-4,-2.75l-3.96875,-6.8125z"/>
    <path stroke="#000000" fill="#ececec" fill-rule="evenodd" stroke-width="0.7" stroke-miterlimit="4" id="path2269" d="m1024.006844,-1513.477038l-5.2275,6.05292l1.6508,3.02645l4.6773,-0.55026l1.6508,-4.95239l-2.7514,-3.57672zm-25.5873,-159.02645l0.5503,7.7037l2.4762,-0.82539l0.5502,-5.50265l-3.5767,-1.37566zm162.6891,165.86594l8.9492,-0.3891l1.5564,5.83644l-3.891,3.11276l-5.8364,-1.55638l-3.1128,-3.89096l2.3346,-3.11276zm57.9753,-8.56011l-1.9455,3.50186l3.5019,0.77819l-1.5564,-4.28005zm-21.4003,-3.50186l-3.1128,4.66915l0,-3.89096l2.7237,-3.11277l0.3891,2.33458zm11.2838,-5.83644l-5.4474,4.28005l4.2801,1.16729l2.3346,-2.33457l-1.1673,-3.11277zm-3.5019,7.78191l-4.28,3.11277l3.5018,2.72367l8.5601,-0.77819l0.3891,-4.66915l-8.171,-0.3891zm-45.9133,-12.45106l-8.5601,8.17101l0.3891,3.11277l8.5601,-5.83644l3.891,-6.61463l-4.2801,1.16729zm3.5019,12.06197l-9.3383,1.16729l0.3891,3.50186l7.3928,1.55638l10.1165,-1.94548l4.6691,-7.78191l-9.7274,1.55638l-3.5018,1.94548zm-6.6147,12.84016l2.3346,-5.05825l-6.6146,-0.38909l-3.5019,4.28005l3.5019,4.66915l4.28,-3.50186zm23.7349,-96.10666l0.3891,-11.67288l0,-5.44734l2.3346,-0.77819l4.6691,3.11277l5.8364,7.00372l3.1128,6.61463l0,3.89096l-5.0582,1.55638l-6.2256,7.39282l-9.3383,6.22554l-2.3345,-3.50187l2.3345,-4.28005l3.891,-4.66915l0.3891,-5.44734zm-2.7237,27.2367l-1.1673,7.39282l-2.7236,0l1.1672,-5.05824l2.7237,-2.33458zm2.3346,0.7782l2.3346,-8.17102l5.4473,-2.33457l2.3346,3.50186l-1.9455,6.22553l-4.6691,3.50187l-3.5019,-2.72367zm14.0074,-9.7274l5.4474,-3.89096l3.5018,1.55639l-0.7781,3.11276l-3.891,1.16729l-3.1128,3.89096l-2.7236,0.77819l-0.3891,-3.11277l1.9454,-3.50186zm10.5056,6.22553l-3.8909,3.11277l-3.5019,-0.77819l1.1673,-3.89096l2.3346,-1.55638l3.8909,3.11276zm0.3891,2.72367l-1.9455,2.72367l3.1128,3.50187l3.891,-3.50187l-1.5564,-3.11276l-3.5019,0.38909zm-24.513,6.61463l-8.9492,7.39282l-9.3383,9.3383l-2.7237,6.22553l7.0037,-0.77819l8.1711,-8.17101l7.0037,-8.17101l8.171,-4.28005l-1.5564,-3.11277l-7.7819,1.55638zm-9.7274,22.17846l2.7237,6.61463l10.8946,-5.05824l4.2801,-7.78192l1.1673,-7.00372l-5.8364,-0.7782l-5.0583,4.66915l-5.8364,5.83644l-2.3346,3.50186zm-17.1202,5.83644l1.9455,-4.66915l-3.1128,1.16729l-2.3346,2.72367l3.5019,0.77819zm38.9096,-22.17846l0.3891,-3.11277l-4.2801,1.55639l1.5564,2.72367l2.3346,-1.16729zm7.0037,-1.55638c0,0 -1.1673,6.22553 -3.1128,6.22553c-1.9455,0 -3.8909,-1.94548 -3.8909,-1.94548l2.7236,-4.28005l4.2801,0zm-30.3495,31.12766l-6.6146,8.17101l5.8364,1.94548l8.9492,-2.33457l3.891,-8.56011l-12.062,0.77819zm18.6766,-3.11277l-0.3891,3.89096l6.6146,0l0.7782,-3.11276l-7.0037,-0.7782zm8.171,5.83644l-3.8909,6.61463l-5.0583,3.11277l-1.5564,3.89095l4.2801,1.55639l6.2255,-9.7274l8.9492,-3.50186l0.7782,-1.16729l-9.7274,-0.77819zm9.3383,-4.66915c0,0 0.3891,4.66915 1.9455,4.28005c1.5564,-0.38909 3.891,-5.83643 3.891,-5.83643l-5.8365,1.55638zm120.0778,56.79178l-4.0045,-1.68068l-6.6032,-12.38095l-9.0794,-5.50265l-13.7566,-7.42857l-17.3333,-5.22751l-12.1058,-1.10053l-13.2064,0.55026l-1.6508,2.75132l32.7408,10.45503l-0.8254,2.47619l-32.4656,-7.7037l-3.8519,1.10053l-1.9259,6.32804l-6.6032,-4.40212l-13.4815,-1.37566l-10.1799,-6.32804l-6.6031,1.10053l-9.9048,1.10053l-5.7778,-0.27514l-1.1005,3.85186l-5.5026,-3.02646l-6.6032,1.6508l0,9.90476l-0.8254,3.30158l-3.8519,-0.55026l-2.201,-1.10053l-2.2011,-2.20106l-3.8518,0.8254l-7.1535,1.10053l-4.9524,-1.6508l8.8043,-0.27513l-0.2752,-3.85185l-8.2539,-2.20106l-9.3545,-4.95238l4.6772,-4.40211l0.8254,-10.73016l7.1535,-10.45503l4.1269,-6.05291l-12.656,-3.85185l-17.8836,6.05291l26.6878,-12.93122l14.582,-14.85714l4.9524,-12.93122l-1.1005,-6.05291l-6.8783,7.42857l-8.254,10.45503l-3.8519,1.10053l5.2275,-6.60318l-2.7513,-2.47619l-6.6032,2.75133l-4.6772,4.95238l-1.3757,-6.60318l15.6826,-7.15344l-0.5503,-5.50264l4.4021,3.85185l5.7778,-1.65079l0.5503,-7.42858l9.0793,-11.55555l0.5503,-12.93122l-4.4021,-6.05291l-0.2751,-4.95238l-1.1006,-5.77778l-7.7037,-2.75132l-14.3069,0l-3.0264,-3.02645l-2.2011,0.55026l-0.8254,3.30159l-12.6561,-4.95238l-7.9788,-5.50265l-6.8783,-7.97884l-7.1534,-11.00529l-16.508,-11.28042l-3.0264,0.27513l-1.3757,1.92593l14.8572,20.63492l-10.4551,-8.80423l-16.783,-4.67725l-7.4286,-1.92593l-3.5767,2.20106l2.4762,4.67725l3.8518,3.02645l-5.5026,1.37566l-10.1799,-11.28042l-9.0794,-7.97883l-6.328,-5.22752l-3.3016,-3.02645l-3.0265,-1.92593l-7.7037,-4.67725l-11.8307,0.27513l-8.2539,5.77778l-2.2011,5.77778l-1.6508,9.90476l1.3601,6.88781l0.5658,7.6942l-5.5026,5.77778l-2.7513,6.87831l-7.4286,9.90476l-1.3757,4.95238l3.5768,4.12698l2.4761,7.42858l2.7514,3.57672l-0.5503,3.30158l-1.9259,1.37566l-2.7513,4.95239l0,4.95238l4.6772,3.85185l5.7778,3.85185l1.9259,3.57672l-0.8254,5.22751l5.5027,2.47619l4.9523,4.40212l4.4022,3.02645l6.0529,-3.57671l6.8783,-6.32805l2.4762,1.92593l0.2751,6.60317l4.9524,4.95238l-1.6508,6.05291l0,5.22752l1.6508,5.22751l3.0264,3.57672l3.0265,1.10053l0,5.50265l-3.5767,3.57671l-2.2011,3.57672l-3.3016,5.77778l-1.6508,3.02646l1.3757,3.57672l4.127,3.02645l0.8254,2.20106l-1.3757,2.47619l-3.3016,-1.65079l-2.4762,-0.55027l-2.201,3.85185l2.201,3.02646l-2.7513,2.20106l-6.0529,1.37566l-8.5291,-0.8254l-9.9048,4.40212l-6.0529,0.27513l-4.4021,3.02646l-10.7302,3.57672l-5.7777,4.40211l-5.3809,3.68917l0.7934,5.58892l19.8653,19.35705l2.8284,0.17678l3.8891,-2.12132l8.6621,0.53033l6.5407,1.76776l13.7886,7.77818l4.5962,6.71751l3.8891,6.36396l1.7677,4.24265l7.4247,3.88908l6.5407,-0.88388l4.5962,-3.18198l16.4402,-3.35876l4.773,0.70711l12.0208,23.15775l8.6621,6.18718l21.7435,5.65685l4.0659,3.18198l2.6516,-0.7071l6.0104,-6.71752l8.6621,-2.65165l7.9549,-1.23743l4.2427,-5.12653l13.7886,-6.18718l3.5355,-2.65165l5.3033,6.71751l3.8891,9.19239l5.4801,2.47487l10.6066,-3.71231l7.9549,-4.06586l0.3536,-3.18198l7.7781,2.2981l9.8995,-4.94975l41.5426,-0.53033l20.8596,-17.32412l12.5512,0l1.0606,-6.36396l3.8891,-12.9047l7.0711,-5.65685l13.0815,-3.53554l3.889,-6.54073l-1.591,-4.5962l-1.9776,-2.92881zm-184.2786,-159.12397l-4.6691,-6.61463l-4.6692,-1.16729l-1.1673,2.33458l4.2801,3.50186l4.28,3.11276l1.9455,-1.16728z"/>
    <path stroke="#000000" fill="#ececec" fill-rule="evenodd" stroke-width="0.7" stroke-miterlimit="4" d="m709.514744,-941.177538l1.6667,-11.3049l-2.4762,-20.9101l-2.7513,-10.1799l-9.9047,-2.201l-8.254,0.8254l-17.0582,-5.50265l-9.6296,-11.8307l-13.7567,-20.91l-10.1798,-18.709l-2.2011,-14.3069l-7.9788,-9.3545l-0.5503,-5.7778l3.8518,-5.7777l12.6561,0.2751l5.2275,-3.8519l-1.3756,-7.9788l-6.0529,-4.4021l-1.6508,-4.4021l6.0529,-3.0264l0.8254,-4.6773l-4.6773,-4.4021l-5.2275,-4.95235l-6.0529,-6.8783l0.5503,-6.05291l4.9524,-3.57672l-2.7514,-5.77778l-13.7566,-2.20106l-9.6296,0.27513l-7.7037,2.47619l-4.6773,6.05292l-7.1534,3.85185l-4.4021,-3.85185l-4.9524,-6.87831l-0.8254,-7.15344l1.9259,-10.45503l3.3016,-10.17989l2.4762,-8.80423l-1.6508,-8.52911l-7.70369,-2.75132l-12.1058,1.10053l-7.7037,2.75132l-4.9524,9.62963l-11.5555,20.91006l-6.3281,8.80423l-8.2539,2.75132l-6.6032,-0.27513l-6.87831,3.30159l-6.60317,3.30158l-6.60318,-0.27513l-2.75132,-5.50264l-1.10053,-13.20635l-1.6508,-3.02646l-5.50264,-1.10053l-7.15344,4.95238l-12.38095,13.48149l-9.90476,5.77777l-9.3545,1.92593l-12.93122,1.10053l-15.13227,0.27513l-6.60318,2.47619l-7.7037,2.75132l-5.77778,2.20106l-3.02645,-6.05291l-9.07937,-0.27513l-9.3545,-0.55026l-1.65079,-8.52911l5.77778,-13.20634l2.75132,-12.10582l-3.85185,-14.58202l-8.80423,-3.85185l-8.80424,-2.75132l-7.7037,2.47619l-3.57672,-2.47619l-2.75132,-3.85185l-2.53224,-2.81382l-2.97041,5.56514l3.85185,8.80423l3.85185,1.6508l0.27514,6.05291l0,3.30159l-6.87831,2.47619l-0.8254,3.30158l-7.42857,6.05291l-9.07936,14.30688l-2.75133,7.70371l-0.27513,7.7037l-0.55026,19.80948l-3.57672,6.0529l-12.65609,7.7037l-8.80423,7.1534l-2.20106,4.6773l1.37566,8.5291l-0.82539,14.0317l2.20105,5.5027l3.85186,-1.3757l1.92592,-3.5767l-1.10053,7.7037l-3.85185,7.1534l-0.55026,7.7037l-1.10053,8.8043l1.10053,10.7301l-2.47619,13.7566l-3.57672,8.254l0,9.90475l6.32804,12.3809l4.40212,11.2804l-3.02646,12.1059l0.55026,7.7037l3.57672,7.1534l4.67725,5.5026l8.25397,6.6032l3.30159,4.127l4.40212,1.6508l-8.80424,2.4762l0.27513,6.6032l4.40212,9.6296l5.22751,14.3069l2.47619,3.3016l10.73016,-0.5503l4.67725,2.4762l3.85185,8.2539l-0.27513,11.2805l7.70371,9.6296l3.30158,3.5767l5.22752,0l4.12698,9.0794l-16.2328,17.6085l-0.27514,4.9523l-6.60317,0.8254l-22.01058,18.9842l-29.98942,26.9629l-0.55027,4.6773l4.67725,-0.5503l9.07937,-0.8254l1.92592,-1.6508l4.12699,4.127l14.58201,1.1005l1.65079,3.8519l1.10053,10.1799l2.47619,2.7513l6.87831,-1.9259l12.10582,10.7301l7.7037,7.7037l15.40741,13.4815l7.15344,7.1535l2.75132,3.8518l-4.40211,7.1534l0,7.9789l4.67724,9.9047l0.8254,3.0265l4.67725,1.6508l0.27513,8.5291l-0.82539,6.328l1.65079,3.8519l5.22751,6.0529l3.30159,14.0317l5.77778,16.508l5.22751,8.2539l1.92593,19.2593l1.65079,7.7037l6.05291,4.9524l-0.27513,10.1799l3.02645,5.7778l6.32805,5.5026l8.80423,6.8783l53.37566,47.873l7.97884,0.2752l5.50264,-2.2011l7.42857,4.127l7.42859,-1.3757l5.5026,-4.9524l9.0794,-1.1005l5.2275,-6.6032l8.5291,-9.3545l18.4338,-9.0793l17.05819,-0.5503l8.8043,4.127l4.127,7.4286l0.8254,11.8307l-6.053,7.7037l-3.0264,4.9523l0.2751,3.8519l5.5027,3.5767l9.9047,-3.8518l3.8519,-11.2805l3.5767,-9.0793l7.9788,-10.7302l6.0529,0.2751l4.9524,1.926l6.0529,-1.926l3.3016,-20.3597l3.8519,-4.9524l8.2539,-2.4762l6.3281,-0.2751l9.0794,-7.9789l6.6031,-1.6508l8.5291,-9.0793l6.6032,1.1005l4.4021,4.4021l4.127,0.5503l14.8571,-10.4551l5.7778,-10.1798l17.8836,-12.1059l7.7037,-1.3756l4.6773,1.3756l1.1005,5.7778l4.127,-0.8254l23.6614,-18.1587l4.1269,-11.0053l0.5503,-23.6614l5.2275,-10.1799l9.9048,-3.8518l12.6561,-1.926l10.1799,0.8254l14.3068,-9.9047l10.1799,-8.254l17.0582,-1.6508l5.5027,-2.4762l0.8254,-7.9788l3.8518,-3.5767l0,-7.4286l-1.1005,-3.3016l0,-4.6772l-4.4021,-4.127l-18.9841,-0.5503l-13.4815,-0.5503l-17.3334,1.926l-11.8306,-1.6508l-6.053,-3.8519l-11.8306,-1.1005l-4.127,-3.5767l0,-6.3281l5.5026,-9.0793l1.6508,-11.0053l-4.127,-16.7831l-10.455,-15.6825l-6.6032,-10.4551l-6.328,-6.6031l-3.8519,-6.0529l1.1006,-21.7355l-2.4762,-8.254l0.8254,-12.9312l5.2275,-6.8783l-0.2751,-7.4286l-4.9524,-7.7037l-9.3545,-9.9047l-23.1111,-11.5556l-15.1323,-18.1587l-8.5291,-9.6296l-4.9524,-10.4551l-1.9259,-4.4021l-10.1799,-6.328l-1.3757,-9.0794l3.0265,-4.6772l6.328,-1.6508l12.9153,8.8287z" id="path6441"/>
   </g>
   <path stroke="#000000" fill="#ececec" fill-rule="evenodd" stroke-width="0.7" stroke-miterlimit="4" d="m161.666101,225.89957l-0.270982,-2.303104l-3.242366,1.762304l-6.48543,1.356898l-5.944768,1.898652l-5.67517,-0.133659l-4.188964,-0.540583l-3.784715,-4.063239l0.809563,-3.658267l-1.21705,-2.980208l-3.108024,-0.676411l2.971822,-2.710591l2.567064,-0.813713l-0.135775,-2.032181l-1.89266,-2.979992l-3.648859,-1.760092l-3.108846,-3.250567l-3.649118,-2.572981l-2.161566,1.220029l-0.946722,-2.709334l-0.00199,-6.232159l-0.406098,-2.30306l-4.459984,-2.979168l-4.326156,-7.043665l2.295779,-4.065191l7.293263,-10.434435l0.404243,-3.522656l6.079327,-3.659958l3.5111,-6.504252l2.835576,-6.233074l6.349309,-4.472934l2.566848,-1.491126l0.538759,-5.419443l1.621116,-1.08437l0.269209,-3.251652l0.945333,-1.626086l-0.0016,-5.012823l-5.00116,-5.146704l-2.163556,-5.012129l-0.54183,-4.199761l-1.892747,-3.250958l-3.243188,-0.811848l-2.97286,-0.540973l-3.109365,-4.876345l3.379261,3.792403l4.324209,0.946987l3.513132,-0.136608l2.973292,1.89579l1.891368,-1.084462l-0.270766,-1.625696l-6.486857,-3.113998l-5.812155,-5.959333l-3.920528,-6.230906l-2.569529,-6.908743l-1.489022,-8.399392l2.430641,-4.878123l1.215537,-1.761653l4.86379,-1.89831l3.377795,-0.813973l5.539746,-0.814667l4.188526,-0.814238l5.134383,-0.814537l6.485387,-1.492383l6.214275,-4.201929l0.40446,-2.845243l-2.432717,-1.625002l-4.998738,2.440276l-2.296558,1.62652l-2.026489,1.084505l-5.134421,0.679056l-6.215058,1.763258l-2.567449,-0.405623l-3.242458,1.491338l-1.621116,1.084375l-3.78325,0.543142l-10.26768,5.016124l-10.128969,16.261062l-2.430338,5.826497l-3.241463,4.607417l-1.620467,3.116605l-10.809212,1.764732l-2.431376,2.574932l-2.295342,5.420007l-4.997705,5.691841l-4.052232,4.472197l-1.619689,5.555271l-0.269555,2.167797l-5.537886,6.640384l-2.700671,5.555623l-2.835879,5.284695l-1.213201,9.077672l-0.402681,8.399999l-0.134261,2.709676l-1.485735,1.897226l-2.02523,5.013474l-0.538889,5.012997l1.21718,3.386655l-0.134261,2.709681l-2.836566,3.11699l-2.56581,4.742686l-1.755117,4.606945l-0.809693,3.25182l-5.673791,4.201756l-2.836307,3.929884l-2.97113,4.878296l-0.269122,3.522613l-4.187272,4.743206l-2.161307,2.032918l1.35209,2.709204l1.486254,-0.271443l1.485784,-1.76174l8.242277,-0.544573l9.456343,-6.912602l3.107981,0.54093l1.217786,5.283399l0.812028,4.064189l-0.40506,0.948504l2.43263,1.354036l2.161648,-0.949063l3.377622,-1.355905l3.243318,1.218295l3.24674,11.921359l1.894088,7.450887l2.029987,9.88952l1.216834,2.3028l13.313903,16.017559l4.931559,-3.559096l0.923186,-3.295219l0.291529,-1.040586l4.863968,-1.356377l2.837128,-1.355727l2.567453,0.405618l1.485952,-1.219813l2.702445,-0.000867l2.296428,-2.032962l0.810255,-1.490562l2.701921,-1.626645l1.35209,2.709199l0.811336,1.896484l2.83696,-1.897654l3.242885,-0.136521l3.377146,-2.846202l2.027565,2.30254l2.702704,0.812021l2.161783,-0.542621l1.214585,-4.742252l6.349266,-4.608414l4.457778,-3.930404l5.538794,-3.795265l3.782255,-3.659221l4.187704,-3.38839l2.296471,-1.897481l0.810255,-1.490562l-1.757453,-2.709069zm13.295138,-15.425297l2.644646,0.923628l3.513435,0.811766l2.298072,3.115342l1.893093,4.334808l0.135986,2.709594l-3.377536,1.626867l-4.188223,1.762603l-2.567103,0.678237l-2.568443,-3.521702l-2.838041,-1.489391l-3.822784,-2.669795l2.064379,-3.019873l1.75568,-2.845682l4.593678,-1.491776l0.463162,-0.924626zm18.136315,-70.160094l2.052709,3.743651l0.406536,3.657877l2.973206,1.624828l0.811034,0.948114l-1.485822,1.626255l0.136029,2.845075l-2.026181,2.03288l-2.971951,2.304145l-4.593462,2.169179l-3.106943,2.710635l0.000692,2.167705l7.703994,6.365172l2.702872,1.353949l2.35775,0.415509l1.832204,3.241153l1.217396,4.064063l-2.026008,2.574807l-2.837522,0.136391l-1.755723,2.710196l-1.75529,4.065017l-3.24202,2.846159l-6.756239,-0.404279l-6.302696,-0.830174l1.165593,-6.890639l-2.433322,-3.521746l-0.541916,-4.470722l-4.325896,-6.230776l-3.918933,-1.218078l-0.40606,-2.167575l-2.299196,-6.637868l-5.677246,-6.636789l-4.055611,-6.095377l-2.839036,-4.60547l-0.406271,-2.844983l1.755545,-3.252129l-5.947017,-5.146396l-0.135813,-2.167667l2.16148,-1.490996l-1.081627,-2.031877l0.269425,-2.574239l-1.217401,-4.064063l-1.486946,-1.896267l1.485908,-1.355298l6.21562,-0.001995l-0.000303,-0.948369l0.53971,-2.438845l1.620688,-2.439192l-1.891973,-0.812287l-1.081578,-1.896397l3.37766,-1.22042l2.027354,1.625132l-0.133872,3.929011l2.567237,-0.271785l0.405147,-0.677538l-0.541046,-1.76109l1.017029,-2.987967l5.362151,5.6398l2.083827,0.608677l0.347913,2.002016l3.73395,2.436178l2.432073,3.655282l-0.867149,3.221097l1.216896,4.526159l2.866495,4.699736l5.905101,4.611705l2.604874,1.043753l6.791972,0.387983z" id="path5443"/>
   <g stroke="#000000" transform="matrix(0.491116951951352,-0.00015761852116424256,0.00015720012321884623,0.49242409039016677,230.30133873614386,996.6207524502831) " fill="#ececec" stroke-width="0.7" stroke-miterlimit="4" id="g3839">
    <path stroke="#000000" fill="#ececec" fill-rule="evenodd" stroke-width="0.7" stroke-miterlimit="4" d="m235.498844,-1680.281978l-2.75132,-2.432l-0.55027,-9.07937l-2.47619,-7.7037l2.20106,-7.15344l3.30159,-6.05291l0.27513,-4.40212l-3.85185,-6.87831l-0.8254,-11.83068l1.92593,-6.05291l0,-7.15344l3.30158,-0.27514l4.95238,2.4762l12.69201,-4.5048l-2.91067,-3.21422l-8.22012,0.92808l-17.27992,-0.0442l-10.87176,0.44194l-9.23659,-2.51907l-3.40295,-3.88908l-2.96101,-5.12653l3.31457,-5.48008l6.67332,6.62913l-4.68459,-7.15946l-5.08233,-0.39774l-16.04248,1.81196l-7.42462,7.20365l-5.28292,1.6871l-4.68721,5.9602l-4.95238,3.30159l-7.97884,1.65079l-6.60317,2.47619l-1.92593,4.95238l-0.27513,6.87831l4.40212,7.15344l0.55026,8.25397l3.02646,5.50264l-1.6508,4.67725l-5.22751,0.55027l-4.40212,0l-2.47619,3.85185l-2.20105,3.57672l-3.85186,3.57672l-3.85185,1.10053l-3.30159,2.75132l2.47619,4.95238l5.50265,3.57672l1.65079,6.32804l-1.92592,7.15344l2.47619,3.57672l5.50264,4.40212l4.40212,0l0,-7.42857l3.30159,-4.12699l5.22751,-3.02645l6.05291,0l8.54828,-2.26919l7,1l2.375,4l6,3.5l7.125,0.875l5.125,-2.25l3.125,-4.125l3.5,-2.375l5.5,1.125l2,8.75l3.125,3.75l6.375,-0.5l14.375,-10.375l1.78426,-2.55626l0,0.00001z" id="path2299"/>
    <g stroke="#000000" fill="#ececec" stroke-width="0.7" stroke-miterlimit="4" id="g3066">
     <path stroke="#000000" fill="#ececec" fill-rule="evenodd" stroke-width="0.7" stroke-miterlimit="4" id="path23938" d="m170.435324,-1760.740688l-4.68721,6.26956l-4.95238,3.30159l-7.97884,1.65079l-6.60317,2.47619l-1.92593,4.95238l-0.27513,6.87831l4.40212,7.15344l0.55026,8.25397l3.02646,5.50264l-1.6508,4.67725l-5.22751,0.55027l-4.40212,0l-2.47619,3.85185l-2.20105,3.57672l-3.85186,3.57672l-3.85185,1.10053l-3.30159,2.75132l2.47619,4.95238l5.50265,3.57672l1.65079,6.32804l-1.92592,7.15344l2.47619,3.57672l5.50264,4.40212l4.40212,0l0,-7.42857l3.30159,-4.12699l5.22751,-3.02645l6.05291,0l0.27513,7.7037l-3.30158,15.68254l-5.22752,6.05291l-5.22751,2.75132l-2.20106,4.12699l-6.32804,0.82539l-6.60318,1.37567l-4.95238,1.37566l-4.67725,-3.30159l-1.10052,-4.12698l0.55026,-6.60318l-0.55026,-6.60317l-3.30159,-1.92593l-3.30159,7.7037l-5.50264,4.95239l-1.6508,7.42857l-3.57672,4.40211l2.75132,5.50265l-1.65079,1.37566l-5.77778,-4.67725l-4.67725,0.8254l0.27514,2.20106l3.85185,3.85185l1.10053,3.02645l-2.75132,1.10053l-3.85186,-3.85185l-5.22751,-3.85185l-3.85185,2.20106l1.65079,3.57672l3.57672,2.20105l-1.65079,1.92593l-5.22752,-2.47619l-5.50264,-2.20106l-2.47619,4.95238l0,6.05291l-1.37566,9.3545l-1.92593,3.57672l-4.95238,1.10053l-6.32804,-2.47619l-4.12699,-1.10053l-3.02645,1.37566l-5.77778,-0.55026l-3.02645,-3.57672l2.47619,-4.40212l2.75132,-4.40212l1.92593,-5.50264l-1.37567,-4.40212l-4.40211,0.27513l-2.20106,3.30159l-5.22751,-0.27513l-4.12699,0.27513l-3.02645,2.75132l-4.67725,4.67725l-1.92593,8.25397l-2.75132,-1.65079l-3.57672,-6.05291l-4.95238,-7.15344l-1.92593,-7.97884l3.57672,-6.32804l2.75133,-3.30159l4.95238,1.10053l4.95238,-1.10053l-3.85185,-4.67725l-7.15344,-3.57672l-3.57672,-2.75132l-6.60318,-0.27513l-3.85185,-5.22751l-3.85185,-1.10053l-3.30159,4.67725l-3.85185,-3.02646l-3.30159,-3.02645l-3.57672,1.37566l-3.30159,-6.32805l-3.57671,-2.47619l-4.12699,3.57672l-11.55555,-2.20105l-2.75133,-4.12699l0,-6.60317l-2.20106,-1.10053l-3.02645,-0.27513l-2.75132,-5.77778l-3.85186,-2.47619l-4.12698,2.47619l-1.65079,5.50264l0,4.95238l-5.53123,1.95583l-4.81785,-1.0362l-5.83363,-2.82843l-15.2028,-12.72792l0.35356,-4.77297l5.83363,-5.65686l10.07627,-4.24264l5.12652,-4.41942l4.41942,-4.41941l-0.35355,-5.48008l2.65165,-3.18198l-0.88389,-2.2981l-6.54073,-2.47487l-0.70711,-7.6014l-4.70557,-8.24111l16.98619,0.73346l19.18563,-7.87192l18.73833,-0.70711l8.13173,-4.59619l7.07107,0.17677l13.25825,-9.89949l10.07627,-0.17678l22.98097,-7.95495l7.95495,-4.59619l-4.59619,4.24264l4.41942,2.12132l6.54073,-1.06066l13.25826,-7.42463l8.3085,1.41422l16.26346,7.6014l13.6118,-1.94455l15.02602,1.23744l11.31371,1.76777l10.25305,2.65165l5.3033,-0.88389l4.94975,-2.82842l11.66726,-0.17678l5.43339,6.79121z"/>
     <path stroke="#000000" fill="#ececec" fill-rule="evenodd" stroke-width="0.7" stroke-miterlimit="4" d="m207.209064,-1499.579938l-3.02645,11.83069l-3.57672,9.3545l-6.60317,7.15344l-6.60318,3.02645l-5.50264,3.57672l-4.95239,8.25397l-1.65079,9.62963l0.8254,8.80423l-1.6508,3.02646l-6.32804,0l-9.62963,-9.62963l-3.57672,-6.87831l-5.22751,-4.12698l-8.80423,-5.22752l-4.67725,-4.95238l-4.95238,-5.22751l5.50264,-6.05291l-2.75132,-2.20106l-4.67725,-0.55027l-1.92593,-7.7037l-16.50793,-19.25926l-8.25397,1.6508l-4.12698,0l-4.12699,-2.20106l-11.00529,-2.47619l-5.22751,-3.85186l-3.57672,-3.57671l-7.15344,0.55026l-4.12699,1.92593l-17.33333,-4.67725l-10.45503,-4.67725l-8.25396,-5.50265l-4.40212,-2.75132l-4.95238,-4.12698l-6.32804,-4.12699l-7.68665,-8.73907l1.28872,-3.78236l5.50265,-5.77778l2.47619,-5.50265l4.12698,-8.25396l-1.92592,-7.42858l-4.12699,0l-3.57672,-3.57672l0.27514,-5.50264l4.40211,-4.95238l3.30159,-4.67725l4.95238,-2.75132l2.53869,-5.10252l1.86343,-8.6541l4.67725,-4.67725l3.02645,-2.75132l4.12699,-0.27513l5.22751,0.27513l2.20106,-3.30159l4.40211,-0.27513l1.37567,4.40212l-1.92593,5.50264l-2.75132,4.40212l-2.47619,4.40212l3.02645,3.57672l5.77778,0.55026l3.02645,-1.37566l4.12699,1.10053l6.32804,2.47619l4.95238,-1.10053l1.92593,-3.57672l1.37566,-9.3545l0,-6.05291l2.47619,-4.95238l5.50264,2.20106l5.22752,2.47619l1.65079,-1.92593l-3.57672,-2.20105l-1.65079,-3.57672l3.85185,-2.20106l5.22751,3.85185l3.85186,3.85185l2.75132,-1.10053l-1.10053,-3.02645l-3.85185,-3.85185l-0.27514,-2.20106l4.67725,-0.8254l5.77778,4.67725l1.65079,-1.37566l-2.75132,-5.50265l3.57672,-4.40211l1.6508,-7.42857l5.50264,-4.95239l3.30159,-7.7037l3.30159,1.92593l0.55026,6.60317l-0.55026,6.60318l1.10052,4.12698l4.67725,3.30159l4.95238,-1.37566l6.60318,-1.37567l6.32804,-0.82539l2.20106,-4.12699l5.22751,-2.75132l14.06815,34.59555l3.00521,4.94974l0.17677,9.8995l9.8995,7.60139l7.42462,7.15946l6.8059,4.06587l0.97227,9.72271l5.21492,5.12653l1.06066,2.74004l-4.77297,2.03293l2.47487,14.4073l0.26516,8.66206l5.39169,5.3033l-20.15254,7.6014l-0.53033,3.88908l2.74004,3.27037l4.24264,-0.17677l3.0052,3.0052l2.65165,6.36396l3.88909,3.0052l7.6014,4.06587l0.48783,2.52175z" id="path2307"/>
     <path stroke="#000000" fill="#ececec" fill-rule="evenodd" stroke-width="0.7" stroke-miterlimit="4" d="m-140.759276,-1805.590408l10.31116,11.47845l4.12699,1.10053l0.82539,3.85185l7.97884,5.50265l4.95238,7.42857l-1.92593,6.60318l2.47619,9.35449l5.77778,9.07937l12.65609,10.17989l5.50264,1.6508l29.16402,0.82539l12.38096,-4.67725l7.15344,-3.30158l18.43386,-0.55027l8.5291,-4.40211l7.15344,0l13.20635,-9.90477l9.90476,-0.27513l23.11111,-7.97883l7.97884,-4.67725l-4.67725,4.67725l4.12698,1.92592l6.32804,-1.10053l13.48149,-7.42857l8.80423,1.37566l15.40741,7.70371l14.30687,-2.20106l15.68254,1.37566l10.1799,1.65079l10.45502,2.75133l4.95239,-0.8254l5.22751,-3.02646l11.55555,0l5.77778,6.87831l4.95238,-1.65079l7.42857,-7.15344l16.23281,-1.92593l4.95238,0.55027l4.95238,7.42857l-6.87831,-7.15344l-3.30158,5.77778l3.02645,5.22751l3.30159,3.85185l9.3545,2.47619l10.73015,-0.55026l17.33334,0l8.25397,-0.8254l-10.73016,-18.15873l-1.10053,-12.38095l3.30159,-5.22751l3.57672,-2.20106l-5.22752,-4.40212l-4.12698,-1.37566l5.22751,-3.85185l-1.65079,-8.80424l-3.02646,-5.50264l-17.60846,-20.35979l-16.78307,-10.45503l-11.55556,-5.50264l-14.85714,-9.90476l-5.22751,-3.02646l-22.83598,-0.82539l-13.48148,-5.77778l-12.93122,-3.85185l-5.50265,-1.10053l-9.07936,6.05291l-9.07937,-3.02646l-15.13227,1.92593l-4.12699,2.75132l-9.62963,-5.22751l-15.4074,-34.66667l-2.20106,-20.63492l-5.22751,-9.3545l-2.47619,-11.83069l-5.22752,-7.97883l-11.83069,-3.85185l-8.25396,2.20105l-7.15344,6.32805l-9.07937,3.57672l-3.30159,6.32804l-5.22751,9.3545l-4.40212,12.38095l2.47619,8.25397l7.70371,7.42857l-2.20106,15.13227l1.10053,4.95238l5.22751,0.55027l12.38096,-3.57672l19.80952,-2.75132l6.87831,-2.20106l6.60317,-1.37566l4.12698,4.67725l2.4762,9.35449l3.85185,8.5291l-3.02646,6.60318l-6.60317,4.12698l-9.62963,-0.82539l-5.77778,-5.50265l-8.80423,-6.05291l-5.22752,2.47619l0.27514,6.87831l-6.32805,0.82539l-4.12698,-0.82539l-2.20106,0.82539c0,0 -3.02645,4.40212 -3.85185,5.77778c-0.8254,1.37566 -5.50265,5.22752 -5.50265,5.22752l-17.33333,3.85185l-12.65608,3.85185l-6.05291,3.02645l-5.22752,3.85186l-25.03703,0.82539l-20.91006,7.70371l-22.83598,9.62963l-15.13227,9.90476l-14.71328,6.13001z" id="path4449"/>
    </g>
   </g>
   <g stroke="#000000" transform="matrix(0.491116951951352,-0.00015761852116424256,0.00015720012321884623,0.49242409039016677,230.30133873614386,996.6207524502831) " fill="#ececec" stroke-width="0.7" stroke-miterlimit="4" id="g3846">
    <path stroke="#000000" fill="#ececec" fill-rule="evenodd" stroke-width="0.7" stroke-miterlimit="4" id="path6271" d="m605.672844,-1698.894928l-40.58659,-12.12708l-23.9365,-14.58201l-11.2804,-8.5291l-10.7302,-8.80423l1.6508,-6.32805l2.7513,-3.02645l-1.3756,-3.02646l-14.58202,-4.12698l-8.25397,-3.30159l-8.02867,2.28729l-0.54381,2.20846l0.0442,4.50781l-2.03293,2.65165l-28.10749,-1.50261l-35.33243,2.38276l0,0l0,0l2.33457,2.33457l2.72367,3.50186l-6.22553,4.28006l-10.89468,7.39282l-12.45107,1.55638l-8.17101,-1.55638l-2.33457,-5.83644l-7.07037,3.02984l3.89096,10.89468l3.89096,8.9492l5.83643,5.05825l-3.11276,8.17101l-0.3891,5.05825l4.28006,4.66915l7.39282,1.94547l5.83643,1.94548l5.44735,6.22554l7.3928,1.94547l9.7274,-2.33457l7.3928,2.72367l12.8402,1.94548l7.3928,-0.77819l5.4474,0.77819l11.2837,-7.00372l6.2256,-2.33458l5.4473,0l3.1128,3.89096l2.7236,2.72367l9.7274,1.94548l6.2256,1.55638l7.39276,-1.16729l7.0037,-0.38909l6.2255,3.11276l10.1166,0l7.3928,-1.94547l8.5601,-0.7782l5.8365,2.33458l5.0582,2.33457l1.5564,0.3891l0.5749,-3.99837l7.86659,0.61872l9.2808,-4.33103l5.922,-8.30851l5.4801,-2.65165l3.6239,-2.91681l2.5299,-3.6647z"/>
    <path stroke="#000000" fill="#ececec" fill-rule="evenodd" stroke-width="0.7" stroke-miterlimit="4" id="path15149" d="m487.156824,-1760.751128l3.5398,2.75769l0,4.28006l-1.94548,2.72367l-5.83644,0l-4.66914,0.38909l-9.7274,-1.16729l-7.78192,-0.77819l-21.78936,1.55639l-13.72926,0.54228l-14.28564,0.23591l-5.44734,-1.94548l-2.72367,4.66915l-8.17101,2.72367l-1.55638,4.66915l-3.89096,2.72367l-5.58313,2.24809l-3.57554,1.29987l-7.39282,-2.72367l-4.28006,4.28005l-5.44734,1.55639l-1.16728,-8.17101l-5.36936,-10.01191l6.81209,-0.64698l15.40741,-1.37566l10.73016,-2.20106l11.83069,-5.77777l9.62963,-0.27514l7.97883,-1.10053l13.48149,-1.37566l10.17989,-0.27513l4.95238,-1.10053l26.13757,0l9.06075,1.94694l4.62884,0.32394z"/>
    <path stroke="#000000" fill="#ececec" fill-rule="evenodd" stroke-width="0.7" stroke-miterlimit="4" d="m390.443834,-1738.605758l2.33457,5.83644l8.17101,1.55638l12.45107,-1.55638l10.89468,-7.39282l6.22553,-4.28006l-2.72367,-3.50186l-2.33457,-2.33457l0,0l0,0l-14.49787,0.0529l-5.5625,-1.75l-2.75,4.375l-8.3125,2.625l-1.3125,4.6875l-2.58325,1.68246l0,0.00001z" id="path16123"/>
   </g>
   <g stroke="#000000" transform="matrix(0.491116951951352,-0.00015761852116424256,0.00015720012321884623,0.49242409039016677,230.30133873614386,996.6207524502831) " fill="#ececec" stroke-width="0.700159" stroke-miterlimit="4" id="g3052">
    <path stroke="#000000" fill="#ececec" fill-rule="evenodd" stroke-width="0.700159" stroke-miterlimit="4" id="path24918" d="m-64.828406,-1670.085778l5.08929,-1.86745l0,-4.95238l1.65079,-5.50264l4.12698,-2.47619l3.85186,2.47619l2.75132,5.77778l3.02645,0.27513l2.20106,1.10053l0,6.60317l2.75133,4.12699l11.55555,2.20105l4.12699,-3.57672l3.57671,2.47619l3.30159,6.32805l3.57672,-1.37566l3.30159,3.02645l3.85185,3.02646l3.30159,-4.67725l3.85185,1.10053l3.85185,5.22751l6.60318,0.27513l3.57672,2.75132l7.15344,3.57672l3.85185,4.67725l-4.95238,1.10053l-4.95238,-1.10053l-2.75133,3.30159l-3.57672,6.32804l1.92593,7.97884l4.95238,7.15344l3.57672,6.05291l2.81428,1.90169l-2.41323,5.20329l-4.95238,2.75132l-3.30159,4.67725l-4.40211,4.95238l-0.27514,5.50264l3.57672,3.57672l4.12699,0l1.92592,7.42858l-4.12698,8.25396l-2.47619,5.50265l-5.50265,5.77778l-1.47401,4.19544l-7.0451,-3.44556l-13.08147,-1.5026l-12.9047,0l-8.92723,2.2097l-6.8059,3.44715l-0.26516,-3.62392l-4.5962,-3.8007l-3.97747,1.67938l-5.48008,5.03813l-6.62913,-3.09359l-6.54073,-8.3085l-8.66206,-4.77297l-7.15946,-2.2981l-2.38648,-4.77297l-0.44195,-5.74524l-3.88908,-8.92723l-4.86136,-6.27557l-7.42462,-1.59099l-4.94975,-1.85616l1.32582,-23.33452l1.67938,-12.63953l13.16987,1.5026l13.08147,0.97227l6.89429,-5.74524l3.8007,-8.75045l3.35876,-5.21491l5.48008,-0.35355l4.33103,-5.03814l-2.20971,-8.13173l-3.55617,-6.76374z"/>
    <path stroke="#000000" fill="#ececec" fill-rule="evenodd" stroke-width="0.700159" stroke-miterlimit="4" id="path9253" d="m-162.638586,-1389.392378l-4.67725,8.25397l1.65079,6.32804l7.42857,5.22752l7.97884,9.35449l4.40211,1.10053l-8.5291,1.6508l-9.90476,-2.20106l-23.38624,-3.57672l-12.93122,-2.47619l-8.5291,2.47619l-3.64738,3.90143l9.81041,1.81517l6.6875,5.875l8.0625,1.875l4,-2.9375l6,2.625l9.8125,-1.625l5.25,-2.3125l29.25,4.0625l7.3125,6.125l10.125,0.75l18.8125,7.5625l8.5,-2.375l22.25,4.75l6.6875,-5l8.3125,-0.625l9.1875,-7.875l4.6875,-3.125l9.875,-2.25l2.75,-4.625l7.125,-17.0625l3.0625,-0.75l8.75,0.875l5.8125,-2l1.625,-1.9375l9.0625,-8.875l4.51951,-2.4289l0.8254,-1.37567l12.10582,-1.37566l8.5291,-7.97883l11.55555,-1.92593l14.03175,-6.60317l11.28042,-7.70371l13.75662,-13.75661l6.60317,-3.85185l11.28043,-0.8254l10.73015,0l11.0053,0.55026l9.62963,6.32805l4.40211,5.50264l5.50265,-1.37566l9.35449,-0.27513l4.95239,6.32804l4.67724,3.85185l12.65609,1.6508l6.32804,-1.10053l14.58201,0l11.55556,-5.50265l4.67725,2.47619l9.07936,0.8254l7.42857,4.12698l9.07937,-2.75132l4.95238,-1.10053l3.57672,-3.57672l4.67725,0l9.62963,6.05291l10.45502,1.92593l23.11111,-0.8254l14.58201,-2.47619l8.80424,-4.12698l13.04684,-2.43973l-2.55728,-8.03075l-4.40211,-7.97884l0,-9.62963l-7.70371,-4.95238l-5.22751,-0.55026l-7.15344,-6.87831l-12.10582,-13.48148l-8.80423,-3.30159l-6.87831,-0.82539l0.27513,-9.62963l-2.24822,-2.85193l-5.21489,-2.36014l-7.42857,-7.7037l-9.3545,-0.55026l-8.80423,1.10052l-10.73016,-1.37566l-20.63492,-0.27513l-6.87831,0l-3.02645,11.83069l-3.57672,9.3545l-6.60317,7.15344l-6.60318,3.02645l-5.50264,3.57672l-4.95239,8.25397l-1.65079,9.62963l0.8254,8.80423l-1.6508,3.02646l-6.32804,0l-9.62963,-9.62963l-3.57672,-6.87831l-5.22751,-4.12698l-8.80423,-5.22752l-4.67725,-4.95238l-4.95238,-5.22751l5.50264,-6.05291l-2.75132,-2.20106l-4.67725,-0.55027l-1.92593,-7.7037l-16.50793,-19.25926l-8.25397,1.6508l-4.12698,0l-4.12699,-2.20106l-11.00529,-2.47619l-5.22751,-3.85186l-3.57672,-3.57671l-7.15344,0.55026l-4.12699,1.92593l-17.33333,-4.67725l-10.45503,-4.67725l-8.25396,-5.50265l-4.40212,-2.75132l-4.95238,-4.12698l-6.32804,-4.12699l-5.77778,-7.42857l-8.80423,-4.40212l-13.48149,-1.65079l-12.65608,0l-9.07937,2.20106l-6.60317,3.57672l-5.22751,10.17989l1.37566,4.67725l-6.05291,1.92593l-7.15344,2.20106l-5.22751,7.7037l-3.30159,1.10053l-0.55027,-2.75132l-8.5291,5.22751l-6.05291,3.85185l-0.82539,4.67725l-7.15344,4.40212l-6.05291,5.22751l3.02645,3.85185l-3.30159,4.95238l-4.67724,5.50265l-0.55027,8.25397l-6.87831,6.32804l3.57672,7.42857l2.47619,12.65608l-3.85185,6.32805l-3.30158,6.8783l-7.42858,8.5291l-9.62963,7.70371l-9.07936,7.97883l-17.8836,14.85715l-7.42857,4.95238l1.92593,4.12698z"/>
    <path stroke="#000000" fill="#ececec" fill-rule="evenodd" stroke-width="0.700159" stroke-miterlimit="4" id="path9246" d="m-90.686526,-1572.532118l2.20106,4.95238l7.42857,2.47619l8.5291,4.95238l6.87831,7.97884l6.32804,3.30158l5.50265,-4.95238l4.12698,-1.92592l4.40212,3.85185l0.55026,3.02645m-45.85044,-23.53175l0,0l-7.39063,3.125l-8.5,3.625l-5.25,1.1875l-5.375,-7.0625l-5.8125,-3.3125l-7.25,-5l-9.625,10.3125l0.5,4.125l3.5625,5.5l-1.8125,3.375l-13.25,10.5l-7.875,7.25l-11.125,7.875l-8.25,7.5l-13.625,9.4375l-2.6875,9.81251l-4.3125,1.1875l-5.25,-1.625l-4.5625,-4.4375l-6.75819,5.93138l6.52043,4.02431l3.85185,9.35449l-0.8254,6.32805l-3.57672,7.7037l0.55027,9.3545l-6.05291,4.67725l-3.57672,5.50264l-4.95238,5.22751l1.37566,5.77778l6.60317,1.10053l4.67725,-0.55026l16.50794,14.58201l15.4074,-0.27514l6.32805,6.60318l1.92592,7.42857l0,10.73016l-1.92592,4.95238l7.9512,6.93982l8.28919,-5.34108l9.9375,-8.5l17.1875,-14.625l8.625,-6.875l7.125,-8.5l3.5,-6.875l3.5,-6l-2,-12.625l-4,-8.25l7.125,-6.25l0.75,-8.375l4.375,-4.875l3.625,-5.25l-2.625,-4l5,-4.75l7.625,-4.5l1,-5.125l14.125,-8.875l0.875,2.75l3.375,-0.875l5,-7.75l13.5,-4.125l-1.5,-5.125l5.28125,-10.53126"/>
    <path stroke="#000000" fill="#ececec" fill-rule="evenodd" stroke-width="0.700159" stroke-miterlimit="4" id="path5434" d="m-285.509296,-1475.030608l5.93949,15.20437l0.55026,17.60846l3.85186,6.60318l-0.27514,4.12698l-2.20106,1.6508l-3.57671,-1.10053l-4.12699,4.12698l-4.67725,7.42857l1.10053,8.5291l-1.65079,10.1799l-1.37566,5.77778l1.10053,9.90476l-0.8254,5.77778l2.75132,9.07936l-1.92592,6.60318l0.82539,4.40211l3.85185,2.20106l1.79079,5.14934l6.29601,1.95957l3.36327,-3.78285l6,-0.375l7.5625,1.1875l7.375,-2.25l6.19054,5.40642l9.05981,5.2591l8.79464,0.0884l10.03207,-4.68458l6.51264,-9.99992l4.00757,-4.15192l8.5291,-2.47619l12.93122,2.47619l23.38624,3.57672l9.81637,2.11267l8.61749,-1.56241l-4.40211,-1.10053l-7.97884,-9.35449l-7.42857,-5.22752l-1.65079,-6.32804l4.67725,-8.25397l-3.30159,-6.05291l-6.32804,-4.95238l1.92592,-4.95238l0,-10.73016l-1.92592,-7.42857l-6.32805,-6.60318l-15.4074,0.27514l-16.50794,-14.58201l-4.67725,0.55026l-6.60317,-1.10053l-1.37566,-5.77778l4.95238,-5.22751l3.57672,-5.50264l6.05291,-4.67725l-0.55027,-9.3545l3.57672,-7.7037l0.8254,-6.32805l-3.85185,-9.35449l-7.97884,-4.95239l0.2063,-0.0124l-5.25,0.375l-5.5,3.875l-4.75,-9l-5.125,3l-1.375,2.625l-5.125,4.75l-5.375,-0.25l-3,2.625l-5.125,-1l-6,2.75l-10,2.625l-2.5,9.25l-9.97388,7.0701z"/>
    <path stroke="#000000" fill="#ececec" fill-rule="evenodd" stroke-width="0.700159" stroke-miterlimit="4" d="m28.410784,-1388.597978l5.35149,8.46295l-2.78023,17.65534l-9.85131,11.99848l-21.87212,24.72641l11.71545,8.8165l7.11926,8.81651l-1.71957,13.41269l-1.71958,13.4127l-0.55027,-4.67725l-6.60317,-7.15343l-13.48148,-0.27514l-11.55556,6.60318l-15.13227,-10.73016l-6.97876,-0.30888l-7.00372,-10.89468l-7.00372,0l-20.23299,0l-17.12021,0l-7.00372,7.78192l-8.56011,7.78191l-7.78192,-0.77819l-3.89096,-7.00372l-60.69894,-1.55639l-3.89096,-5.44734l-3.11276,-0.77819l-6.22554,5.44734l-9.3383,0l-8.5601,3.11277l-18.6766,0.77819l-6.22553,-3.11277l-12.45107,-14.78564l-1.55638,-3.89096l-3.89096,-10.11649l3.89096,-8.5601l-8.56011,-8.56011l-20.13596,-1.14768l3.16709,-3.81284l6.05291,-0.27514l7.7037,1.10053l7.42857,-2.20105l6.05291,5.22751l9.3545,5.50264l8.5291,0l10.17989,-4.67724c0,0 5.05326,-7.54322 6.71961,-10.21213c2.38933,0.32697 9.78833,1.68303 9.78833,1.68303l6.60318,5.77777l7.97883,2.20106l4.12699,-3.02645l6.05291,2.47619l9.62963,-1.37566l5.22751,-2.4762l9.3545,0.8254l20.08465,3.02646l7.42857,6.32804l10.1799,0.55026l18.70899,7.70371l8.5291,-2.47619l15.40741,3.85185l6.60318,1.10053l6.8783,-5.22752l7.97884,-0.27513l9.3545,-7.97883l4.67724,-3.02646l9.90477,-2.47619l2.75132,-4.12698l7.15344,-17.33334l5.50264,-0.82539l6.05291,0.82539l6.32805,-1.92592l11.83068,-10.73016l7.42858,-3.85185l9.35449,1.10053z" id="path20774"/>
   </g>
   <path stroke="#000000" fill="#b3b3b3" stroke-width="0.7" stroke-miterlimit="4" id="path3577" d="m878.532894,270.046226l-1.516276,5.073489l-10.87704,3.30096l-6.067506,12.304081l-8.853205,3.42711l-8.219157,8.24631l-9.992812,-0.630937l-4.17245,5.328039l2.530764,3.043009l-5.8162,7.230948l-4.932466,1.903965l-0.124811,5.32669l3.54186,0.379359l0.507892,6.08748l3.163297,3.423253c0,0 -0.252844,0.253729 -2.023187,1.903032c-1.770343,1.649303 -1.643143,3.805341 -1.643143,3.805341l4.555337,5.325188l1.644471,0.506768l0.50526,-2.156192l2.782767,-0.000893l2.908469,-2.537459l5.820119,5.198033l5.566182,2.027395l-6.194908,9.513948l-7.335391,3.172975l-2.148817,4.820045l-5.439386,-1.139644l-4.931413,5.201434l-2.782718,0.000893l-2.151044,-2.15534l-8.095164,0.509893l-1.389845,4.819801l-9.866349,-0.630928l-3.539373,7.103369l-3.668031,0.381624l0.380975,4.819282l2.909805,1.647801l-0.628128,13.570525l4.07393,3.896082l-19.314438,15.43104l42.595716,46.332699l8.094884,-0.002598l2.313792,2.898011l10.696822,-0.003433l4.046468,-2.900052l3.18013,-0.001021l2.890318,-2.319901l5.492947,-0.001763l2.313557,2.31823l0.001388,4.348105l3.470502,3.767211l4.336699,0.578339l0.58148,10.145376l-3.468602,2.030196l1.160592,13.333725l-2.890361,2.030109l0.00111,3.478518l-4.625128,1.740677l0.001018,3.188544l3.180826,2.028111l14.455143,-0.004639l11.276816,5.793789l0.001573,4.927836l-2.890454,1.74017l0.580505,7.246623l4.625819,0.578246l0.869533,6.956689l6.651138,5.505432l0.000833,2.608863l-2.890269,2.319901l0.002221,6.956918l-4.047442,0.001299l-0.287732,4.348148l-6.936045,7.538925l-5.203641,0.581401l0.001018,3.188594l2.891472,1.448473l0.003887,12.174595l-5.20216,5.219396l0.001851,5.797407l-4.62337,7.248293l0.008791,27.537882l4.048738,4.056916l0.291712,8.116337l7.519327,8.403907l4.91494,0.578154l0.001018,3.188594l-2.890917,0.290818l0.000555,1.739193l3.183924,11.883733l-3.179019,3.479504l0.00111,3.478484l6.071509,1.157513l2.315131,7.246066l7.517062,1.157099l0.868886,4.927557l12.722924,7.532567l2.314945,6.666335l3.759062,2.317767l14.744357,0.285109l9.543813,10.72223l2.599439,-7.827374l2.023511,-0.58043l0.287825,-4.058258l-2.6024,-1.448566l-0.001296,-4.058165l4.625357,-0.871105l6.646881,-7.828673l-0.001943,-6.087347l6.358871,-4.350097l-2.025781,-6.376587l1.154305,-6.667399l7.514422,-6.959331l1.442963,-8.116893l4.046887,-1.740541l4.045591,-5.798756l-5.204338,-1.447682l-0.291663,-8.116337l-3.469898,-2.028019l-0.001481,-4.637946l4.336514,-0.001392l4.044944,-7.827838l4.625128,-1.740726l1.444579,-2.899168l-4.626097,-1.447867l-0.291341,-6.956826l3.757766,-1.740448l-0.001481,-4.637995l-10.40946,-5.504226l2.89004,-3.189522l0.287221,-5.7975l3.75726,-3.47969l0.288146,-2.898796l-5.204844,-3.186924l0.865092,-6.957246l-5.205633,-5.505896l0.866202,-3.478762l-5.49378,-2.6071l-0.000648,-2.029083l3.468276,-2.899817l-0.001573,-4.927836l-3.180685,-1.738221l-0.291292,-6.956826l-4.048275,-2.607564l-5.492947,0.001763l0.288331,-2.319066l5.780957,-3.480339l-2.317259,-13.913094l3.179667,-1.450422l-2.604529,-8.115545l-13.591021,-10.141235l-0.290601,-4.637843l-3.758322,0.001206l-4.048738,-4.056916l0.864487,-8.696439l-2.313187,-1.158769l-0.289812,-2.31888l2.889991,-3.189522l-0.582079,-12.174409l-5.494427,-4.636183l2.890361,-2.03006l0.288195,-2.898796l7.805764,-0.002505l4.046424,-3.189893l-1.44717,-5.217262l4.914477,-0.871198l-1.162263,-18.26157l2.312169,-2.029825l-1.157772,-4.347734l3.179945,-0.580752l2.022679,-3.189243l-4.047671,-0.868322l0.861439,-18.55211l-3.758599,-0.868415l-0.294673,-17.392228l1.732589,-6.377695l-2.343199,-6.096936l8.7604,-15.068971l0.709946,-17.577357l-8.590688,-13.449138l-10.377079,-5.915559l-7.695645,-11.655819l-5.724893,-1.971109l-6.443836,-12.732414l-8.589494,-9.861976l-11.808022,-5.376978l-16.995715,-5.913385l-4.829612,0.719012l8.408969,4.660607l-9.491437,-2.188881z"/>
  </g>
 </g>
</svg>